<svg width="22" height="23" viewBox="0 0 22 23" fill="none" xmlns="http://www.w3.org/2000/svg">
<path d="M7.2404 6.97482V3.35437M14.4813 6.97482V3.35437M6.33529 10.5953H15.3864M4.52507 19.6464H17.1966C17.6767 19.6464 18.1372 19.4557 18.4767 19.1162C18.8161 18.7767 19.0069 18.3163 19.0069 17.8362V6.97482C19.0069 6.49472 18.8161 6.03428 18.4767 5.6948C18.1372 5.35531 17.6767 5.16459 17.1966 5.16459H4.52507C4.04497 5.16459 3.58453 5.35531 3.24505 5.6948C2.90556 6.03428 2.71484 6.49472 2.71484 6.97482V17.8362C2.71484 18.3163 2.90556 18.7767 3.24505 19.1162C3.58453 19.4557 4.04497 19.6464 4.52507 19.6464Z" stroke="#646060" stroke-width="1.08613" stroke-linecap="round" stroke-linejoin="round"/>
</svg>
