<svg width="22" height="23" viewBox="0 0 22 23" fill="none" xmlns="http://www.w3.org/2000/svg">
<path d="M12.9488 13.4203C13.4581 12.9111 13.7441 12.2204 13.7441 11.5002C13.7441 10.7801 13.4581 10.0894 12.9488 9.58022C12.4396 9.07099 11.749 8.78491 11.0288 8.78491C10.3087 8.78491 9.618 9.07099 9.10878 9.58022C8.59956 10.0894 8.31348 10.7801 8.31348 11.5002C8.31348 12.2204 8.59956 12.9111 9.10878 13.4203C9.618 13.9295 10.3087 14.2156 11.0288 14.2156C11.749 14.2156 12.4396 13.9295 12.9488 13.4203Z" stroke="#646060" stroke-width="1.08613" stroke-linecap="round" stroke-linejoin="round"/>
<path d="M2.3916 11.5C3.54471 7.82799 6.97599 5.16425 11.0282 5.16425C15.0813 5.16425 18.5116 7.82799 19.6648 11.5C18.5116 15.1721 15.0813 17.8358 11.0282 17.8358C6.97599 17.8358 3.54471 15.1721 2.3916 11.5Z" stroke="#646060" stroke-width="1.08613" stroke-linecap="round" stroke-linejoin="round"/>
</svg>
