<svg width="21" height="20" viewBox="0 0 21 20" fill="none" xmlns="http://www.w3.org/2000/svg">
<g clip-path="url(#clip0)">
<path d="M3.31646 19.8188H10.6804V13.0685H8.22574V10.0002H10.6804V7.54557C10.6804 5.51149 12.3283 3.8636 14.3623 3.8636H16.817V6.93191H15.5897C14.9122 6.93191 14.3623 6.86809 14.3623 7.54557V10.0002H17.4307L16.2033 13.0685H14.3623V19.8188H18.0443C19.3976 19.8188 20.499 18.7175 20.499 17.3641V2.63628C20.499 1.28214 19.3976 0.181641 18.0443 0.181641H3.31646C1.96231 0.181641 0.861816 1.28214 0.861816 2.63628V17.3641C0.861816 18.7175 1.96231 19.8188 3.31646 19.8188Z" fill="white"/>
</g>
<defs>
<clipPath id="clip0">
<rect width="19.6371" height="19.6371" fill="white" transform="translate(0.861816 0.181641)"/>
</clipPath>
</defs>
</svg>
