<svg width="29" height="32" viewBox="0 0 29 32" fill="none" xmlns="http://www.w3.org/2000/svg">
<rect width="29" height="32" rx="6" fill="#078BD6"/>
<path d="M17.1144 12.6666L12.7237 17.0573C12.5963 17.1803 12.4948 17.3274 12.4249 17.4901C12.355 17.6527 12.3182 17.8277 12.3167 18.0047C12.3151 18.1818 12.3489 18.3574 12.4159 18.5212C12.483 18.6851 12.582 18.8339 12.7072 18.9591C12.8324 19.0843 12.9812 19.1833 13.1451 19.2504C13.3089 19.3174 13.4845 19.3512 13.6616 19.3496C13.8386 19.3481 14.0136 19.3113 14.1762 19.2414C14.3389 19.1715 14.486 19.07 14.609 18.9426L18.885 14.5519C19.3708 14.049 19.6396 13.3754 19.6335 12.6762C19.6274 11.977 19.347 11.3082 18.8525 10.8138C18.3581 10.3193 17.6893 10.0389 16.9901 10.0328C16.2909 10.0267 15.6173 10.2955 15.1144 10.7813L10.8377 15.1713C10.0875 15.9215 9.66602 16.939 9.66602 17.9999C9.66602 19.0609 10.0875 20.0784 10.8377 20.8286C11.5879 21.5788 12.6054 22.0003 13.6664 22.0003C14.7273 22.0003 15.7448 21.5788 16.495 20.8286L20.6664 16.6666" stroke="white" stroke-width="1.33333" stroke-linecap="round" stroke-linejoin="round"/>
</svg>
