<svg width="20" height="20" viewBox="0 0 20 20" fill="none" xmlns="http://www.w3.org/2000/svg">
<g clip-path="url(#clip0)">
<path d="M10.0557 4.9585C7.27127 4.9585 5.01709 7.21513 5.01709 9.99706C5.01709 12.7814 7.27372 15.0356 10.0557 15.0356C12.84 15.0356 15.0942 12.779 15.0942 9.99706C15.0942 7.21268 12.8376 4.9585 10.0557 4.9585ZM10.0557 13.2675C8.24822 13.2675 6.78525 11.8037 6.78525 9.99706C6.78525 8.19044 8.24903 6.72666 10.0557 6.72666C11.8623 6.72666 13.3261 8.19044 13.3261 9.99706C13.3269 11.8037 11.8631 13.2675 10.0557 13.2675Z" fill="white"/>
<path d="M14.1012 0.243811C12.2945 0.159535 7.81973 0.163626 6.01148 0.243811C4.42251 0.318269 3.02091 0.702011 1.89096 1.83196C0.00251807 3.7204 0.243891 6.26505 0.243891 9.99692C0.243891 13.8163 0.0311556 16.3021 1.89096 18.1619C3.78676 20.0569 6.36822 19.8089 10.0559 19.8089C13.8393 19.8089 15.1452 19.8114 16.483 19.2935C18.3019 18.5874 19.6748 16.9616 19.809 14.0414C19.8941 12.2339 19.8892 7.75993 19.809 5.95167C19.647 2.50454 17.797 0.414 14.1012 0.243811ZM16.9608 16.9125C15.7229 18.1504 14.0054 18.04 10.0322 18.04C5.94112 18.04 4.3006 18.1005 3.10355 16.9002C1.72486 15.528 1.97441 13.3246 1.97441 9.98383C1.97441 5.4632 1.51049 2.20752 6.04748 1.97515C7.08989 1.93833 7.39672 1.92606 10.0207 1.92606L10.0575 1.95061C14.4178 1.95061 17.8388 1.49404 18.0441 6.03022C18.0908 7.06526 18.1014 7.37618 18.1014 9.9961C18.1006 14.0397 18.1775 15.6901 16.9608 16.9125Z" fill="white"/>
<path d="M15.2941 5.93685C15.9444 5.93685 16.4715 5.4097 16.4715 4.75944C16.4715 4.10917 15.9444 3.58203 15.2941 3.58203C14.6438 3.58203 14.1167 4.10917 14.1167 4.75944C14.1167 5.4097 14.6438 5.93685 15.2941 5.93685Z" fill="white"/>
</g>
<defs>
<clipPath id="clip0">
<rect width="19.6371" height="19.6371" fill="white" transform="translate(0.233887 0.181641)"/>
</clipPath>
</defs>
</svg>
