<svg width="20" height="20" viewBox="0 0 20 20" fill="none" xmlns="http://www.w3.org/2000/svg">
<g clip-path="url(#clip0)">
<path d="M17.7952 6.00144C18.5938 5.43441 19.2655 4.72666 19.8129 3.91172V3.9109C19.0823 4.23082 18.3049 4.44356 17.4933 4.54665C18.3279 4.04836 18.9652 3.26533 19.2647 2.32193C18.4866 2.78585 17.6275 3.11314 16.7119 3.29642C15.973 2.5093 14.92 2.02246 13.7712 2.02246C11.5424 2.02246 9.74807 3.83153 9.74807 6.04889C9.74807 6.368 9.77507 6.67483 9.84134 6.96693C6.49485 6.80329 3.53291 5.19959 1.54302 2.75558C1.19609 3.3586 0.991541 4.04836 0.991541 4.79048C0.991541 6.18472 1.70911 7.42022 2.78016 8.13616C2.13295 8.12388 1.49883 7.93569 0.961267 7.64032V7.6845C0.961267 9.64085 2.35632 11.2658 4.18667 11.6406C3.85856 11.7306 3.50182 11.7731 3.13117 11.7731C2.87343 11.7731 2.61324 11.7584 2.36941 11.7044C2.89062 13.2983 4.37158 14.4708 6.13074 14.5092C4.76105 15.5803 3.02153 16.2258 1.13882 16.2258C0.809079 16.2258 0.49243 16.2111 0.175781 16.171C1.95949 17.3206 4.07212 17.9776 6.35166 17.9776C13.4562 17.9776 18.0865 12.0505 17.7952 6.00144Z" fill="white"/>
</g>
<defs>
<clipPath id="clip0">
<rect width="19.6371" height="19.6371" fill="white" transform="translate(0.175781 0.181641)"/>
</clipPath>
</defs>
</svg>
