<svg width="886" height="578" viewBox="0 0 886 578" fill="none" xmlns="http://www.w3.org/2000/svg">
<g clip-path="url(#clip0)">
<path d="M472.592 427.383L470.2 429.245L465.061 434.386L464.441 434.918L463.821 435.184L463.289 435.096L462.669 435.184L462.315 435.362L461.96 435.628L458.062 439.883L457.619 440.592L457.264 441.124L457.176 441.479V441.833L457.264 442.188L457.353 442.454L457.619 443.074L457.973 443.606L459.568 445.645L459.745 445.911L459.922 446.177V446.62L459.834 447.152L459.568 447.418L459.302 447.595L450.708 450.698L447.961 451.673L440.873 454.599L438.481 456.194L433.785 461.425L432.988 462.223L431.393 460.184L430.153 459.475L428.647 459.652L424.66 461.602L423.331 461.957L421.824 461.602L420.23 460.804L411.99 454.865L404.813 449.723L399.054 445.645L395.953 442.365L390.46 434.652L387.182 431.461L380.005 426.408L362.994 414.263L354.666 408.235L347.666 403.182L341.641 398.926L338.629 395.912L338.097 395.558L334.376 390.859L333.845 389.086L332.959 385.274L332.781 383.767L332.959 382.349L333.402 381.108L333.667 379.867L333.49 378.448L331.895 374.991L331.718 373.572V371.799L331.452 370.47L331.098 369.228L329.769 366.569L329.415 365.328L329.237 362.491L328.794 361.871L324.542 359.388L322.061 358.679L320.909 357.793L320.732 357.349L331.452 343.963L334.11 338.201L333.49 335.896L331.807 333.325L323.39 323.84L334.996 318.255V317.279L320.377 296.89L338.629 289.975L342.97 290.064L344.565 293.876L345.894 296.092L354.488 306.375L361.488 318.698L362.728 319.407L367.247 320.382L373.98 323.042L381.954 327.563L397.459 337.137L398.611 339.176L400.472 341.038L400.383 342.367L406.585 340.24L410.218 334.744L413.319 328.361L414.205 327.031L415.179 326.144L416.243 325.79L417.217 326.056L418.192 326.942L419.255 328.538L419.521 330.843L419.609 335.275L420.318 336.782L422.533 337.58L436.443 339.265L437.595 338.112L439.19 332.084L440.165 331.552L441.937 330.843L448.759 330.577L450.974 330.134L452.657 329.424L454.252 327.031L454.872 327.12L455.315 328.715L456.467 335.63L456.91 337.403L457.619 339.442L459.391 340.86L461.163 341.924L466.302 343.165L481.895 344.229L484.376 343.52L483.136 347.775L482.87 349.459L482.781 351.232V352.917L482.87 354.335L483.136 355.133L483.047 355.931L482.338 355.842L479.68 355.31L479.149 355.222L478.706 355.399L478.263 355.754L477.731 356.64L477.642 357.438L476.225 361.782L475.073 363.112L474.187 363.998L473.035 367.721L472.415 368.874L466.39 368.785L465.238 368.431L464.087 367.633L463.112 366.746L462.049 366.48H460.897L459.125 366.746L458.239 367.278L457.796 367.81L457.619 368.431L457.53 369.14V369.672L457.796 371.001L459.125 372.331L458.239 374.813L457.796 375.257L457.53 375.345V375.523L457.619 375.789L458.15 376.764L459.657 378.271L460.454 379.335L460.72 379.778L460.631 379.955L459.125 380.132L458.771 380.221L458.416 380.487L458.062 380.753L457.53 380.842L456.821 381.462L454.341 386.427L453.632 387.402L452.746 388.288L451.771 388.998L448.67 390.416L448.227 391.302L447.873 391.746L447.696 392.012L446.012 394.139L445.126 396.001L444.417 397.685L445.215 399.37L448.936 404.6L450.442 405.575L452.834 406.905L452.923 407.259L453.189 407.88L453.366 408.412L454.075 408.855H455.049L457.264 407.88L458.062 407.969L458.505 408.767L464.707 411.692L465.593 413.199L466.036 414.706V415.859L466.213 417.277L466.656 418.695L467.631 419.227L468.871 419.671L469.668 420.114L470.554 421.089L471.352 422.153L471.618 422.596L471.883 423.305L472.415 425.078L472.504 425.521L472.592 427.383Z" fill="#E0E0E0" stroke="#F5FAF9" stroke-width="2" stroke-linecap="round" stroke-linejoin="round"/>
<path d="M323.39 323.839L331.807 333.325L333.49 335.896L334.11 338.201L331.452 343.963L320.732 357.349L320.643 357.261L320.2 355.665L319.934 355.044L317.985 352.474L317.276 351.055L316.213 346.889L315.593 345.913L313.91 344.052L313.378 343.165L312.935 341.747L312.403 338.644L310.72 332.882L310.188 331.552L310.543 331.02L310.277 330.045L310.188 325.258L310.011 323.839L309.568 322.687L305.758 316.304L304.784 315.24L293.266 306.73L288.836 304.78L283.786 303.45L281.925 303.184L280.773 303.805L280.064 305.223L279.533 307.617L278.292 308.326L277.318 310.542L275.812 312.138L274.04 313.024L272.09 313.113L270.053 312.226L264.737 308.414H263.762L260.75 308.946L260.484 308.326L260.307 307.705L260.129 307.528L259.155 309.212L258.8 309.567L258.446 309.921L255.965 307.351L252.421 306.464L242.055 307.085L235.764 309.212H232.663L230.891 308.769L229.474 307.705L226.639 304.868L223.538 302.563L218.576 299.993L212.906 297.067L211.488 295.649L211.134 294.053L211.754 288.468L212.197 287.316L212.817 286.34L213.703 285.543L215.829 284.479L216.538 283.681L216.095 282.351L212.64 277.475L211.134 274.461L210.602 271.979L211.931 270.117L213.349 269.142L214.943 268.965L216.893 269.586L218.665 270.738L219.728 271.181L220.525 271.093L221.057 270.206L220.968 269.231L220.525 268.256L219.905 267.458L219.196 266.837L216.715 265.33L215.918 264.532L215.386 263.646L216.007 263.025L216.538 261.43L216.45 260.721L215.918 259.479L215.741 259.213L215.652 258.859L215.829 258.593L216.184 258.327L216.981 258.15L218.399 258.061L219.462 257.618L222.12 255.756L223.095 254.87L223.36 254.692L224.246 254.604L225.31 255.401L225.841 255.756L228.411 256.377L230.98 256.643L231.689 257.263L231.866 258.682V261.784L232.309 262.937L233.638 265.064L234.258 266.837L235.676 269.408L236.385 270.383L237.271 271.004L238.422 271.27H240.815L241.701 271.802L242.232 272.954L243.118 275.614L244.447 278.007L246.131 279.869L258.269 290.95L259.598 291.216L260.307 291.482L260.838 291.925L262.699 293.964L264.294 295.471L265.445 295.915L268.458 296.447L269.432 297.067L272.179 300.081L272.799 301.056L273.419 303.095L274.217 303.45L274.571 303.716L275.723 304.159L277.052 304.07L277.938 303.361L279.976 299.372L280.862 298.397L281.659 297.776L282.545 297.333L283.608 297.067H286.355L296.19 299.461L298.67 300.524L301.063 301.943L304.075 304.248L312.846 313.999L318.96 323.839L319.226 324.017L319.934 324.46L320.643 324.726L323.39 323.839Z" fill="#E0E0E0" stroke="#F5FAF9" stroke-width="2" stroke-linecap="round" stroke-linejoin="round"/>
<path d="M312.492 151.06L318.074 160.546L320.644 162.939L334.554 166.751L335.351 167.194V167.904L334.997 168.79L320.998 195.297L307.797 220.739L304.961 227.388L303.81 241.838V242.636L303.987 243.345L309.834 254.16L310.898 256.377L310.632 256.731L310.012 257.352L298.937 263.646L297.873 264.621V265.508L298.316 266.483L320.378 296.89L334.997 317.279V318.255L323.39 323.84L320.644 324.726L319.935 324.46L319.226 324.017L318.96 323.84L312.847 313.999L304.075 304.248L301.063 301.943L298.671 300.524L296.19 299.461L286.355 297.067H283.609L282.546 297.333L281.66 297.776L280.862 298.397L279.976 299.372L277.938 303.361L277.052 304.07L275.723 304.159L274.572 303.716L274.217 303.45L273.42 303.095L272.8 301.056L272.179 300.081L269.433 297.067L268.458 296.447L265.446 295.915L264.294 295.471L262.699 293.964L260.839 291.925L260.307 291.482L259.598 291.216L258.269 290.95L246.131 279.869L244.448 278.007L243.119 275.614L242.233 272.954L241.701 271.802L240.815 271.27H238.423L237.271 271.004L236.385 270.383L235.676 269.408L234.259 266.837L233.638 265.064L232.309 262.937L231.866 261.784V258.682L231.689 257.263L230.98 256.643L228.411 256.377L225.842 255.756L225.31 255.401L224.247 254.604L223.361 254.692L223.095 254.87L222.12 255.756L219.462 257.618L218.399 258.061L216.982 258.15L216.184 258.327L215.83 258.593L215.653 258.859L215.741 259.213L215.918 259.479L216.45 260.72L216.539 261.43L216.007 263.025L215.387 263.646L214.146 261.873L212.64 260.543L207.236 258.504L204.578 258.593L203.869 258.238L203.249 257.263L203.337 256.377L203.957 255.667L204.843 255.401H204.932L207.944 254.249L207.767 251.501L206.793 248.043L207.236 244.852L208.122 244.232L209.185 243.788L209.982 243.168L210.159 242.015L209.539 241.129L208.387 240.42L206.084 239.533L204.223 237.849L202.806 235.632L201.211 233.859L198.907 233.594L196.604 233.859L192.085 233.416L181.187 235.101L178.529 235.012L177.289 234.569L175.251 232.352L174.011 231.909L171.353 231.643L169.935 230.757L169.226 229.516L168.606 224.197L168.163 222.867L167.366 221.714L164.087 218.257L162.847 217.459L161.607 217.636L160.1 218.346L158.594 218.789L157.088 218.878L154.784 218.434L151.152 216.839L147.696 213.559L136.621 200.527L135.381 199.729L134.406 201.325L133.698 207.264L132.634 209.303L130.508 210.013L127.85 209.835L125.192 209.215L119.699 206.91H118.37L117.484 207.176L114.737 208.86L112.788 209.747L111.813 210.456L111.37 211.431L111.636 212.849L112.611 213.647L119.079 216.75L120.851 218.168L122.445 220.562L123.863 223.842L127.673 230.048L129.711 232.53L130.331 233.062L130.597 233.682L130.331 234.303L129.711 234.657L126.432 235.189L125.546 234.923L125.015 234.037V232.973L125.281 231.732L125.458 230.491L124.926 228.009L123.597 226.236L121.825 224.906L116.775 222.512L115.623 222.246L114.649 222.424L112.788 223.221L111.991 223.31L111.105 222.867L109.953 221.094L109.244 220.385L108.269 220.03L107.118 219.941L105.966 220.207L104.991 220.651L104.46 221.271L104.017 222.158L102.688 223.665L101.27 224.285L100.384 224.994L100.738 226.856L101.802 229.25L101.89 230.313L101.447 231.998L99.3208 236.785L98.612 237.583L96.6628 238.292L96.2198 239.178L96.5742 240.242L97.283 241.04L97.3716 241.661L96.3084 242.459L95.2452 242.724L91.7898 242.547L90.8152 242.813L87.8914 244.232L86.7396 244.409L86.3852 241.483L85.9422 239.71L85.2334 238.292L84.2588 237.14L83.0184 236.164L80.2718 234.657L78.0568 234.391L77.5252 234.214L76.9936 233.771L76.2848 233.239L75.2216 231.555L74.6014 231.023L73.7154 230.845L72.3864 230.934L69.4626 231.909L67.2476 233.15L65.9186 234.391L65.387 234.923L63.7922 238.292L57.3244 258.593L57.1472 259.657V260.011L52.54 262.228L51.0338 264.267V266.926L52.1856 272.334L52.0084 274.993L51.654 277.209L51.5654 279.337L52.54 281.819L53.6918 283.681L54.2234 285.543L54.4006 287.493V289.886L54.6664 291.837L55.2866 293.698L56.3498 295.471L57.413 296.713L58.2104 297.244L58.9192 297.599L61.5772 298.22L61.9316 298.574L61.843 299.017L61.2228 299.727L60.1596 300.524L57.7674 301.677L56.7042 302.918L55.1094 305.755L54.1348 306.375L47.8442 305.046L42.9712 304.07L31.4532 303.361L18.9606 302.741L9.39183 302.209L1.06343 301.766L0.97483 270.117V254.249V238.292V222.335V206.289V190.155V173.932V157.709V141.397L0.88623 125.086V108.685V92.1076V75.6187V58.9524V42.1975L1.06343 42.1089L5.84783 40.5132L10.6322 39.0061L15.5052 37.4104L25.1626 34.3076L29.947 32.7119L34.82 31.2049L39.6044 29.6092L49.2618 26.5064L54.1348 24.9994L58.9192 23.4037L63.7922 21.8966L68.5766 20.3009L78.234 17.1981L84.7018 15.1592L91.081 13.2089L97.5488 11.2586L104.017 9.2196L106.94 8.3331L109.953 7.4466L115.889 5.67359L118.99 4.78709L125.192 3.01408L128.293 2.12758L132.457 0.886475L133.698 0.975125L135.115 1.59568L135.558 1.95028L135.47 2.03893L134.672 4.16654L134.495 5.49629L134.229 6.29414L133.52 7.8012L133.343 8.6877V10.7267L133.166 11.2586L132.989 11.4359L132.546 11.7018L132.369 11.8791L132.191 12.1451L131.748 13.4748L129.888 16.0457L129.622 16.4889L129.533 16.6662L129.002 17.1981L126.61 20.5668L126.344 21.0987L126.255 21.6306L126.078 23.4923L125.458 25.4426L124.749 26.9497L124.483 28.1021L124.217 30.407L123.952 31.5595L123.509 32.7119L122.977 33.7757L122.623 34.219L121.914 34.9282L121.559 35.3714L121.382 35.9033L121.294 36.4352L121.116 37.499L120.939 38.5629L117.484 46.9846L117.041 50.2647L116.864 52.3923L116.952 54.5199L118.015 57.6227L119.079 60.3708L120.496 62.6757L121.382 65.8671L121.294 67.5515L120.939 68.7039L120.496 69.7678L119.433 70.477L118.193 72.25L117.927 73.4911L117.572 74.2003L117.307 74.7322L117.218 75.3527L117.572 78.0122L118.458 80.9377L119.787 82.1788L120.762 83.2426L122.8 83.5972L125.281 83.4199L127.85 82.0015L130.508 79.7852L132.812 77.6576L134.318 75.7073L135.115 74.4662L135.735 73.3138L136.799 72.0727L138.039 70.2997L139.191 68.3493L140.077 67.0196L140.963 65.7785L141.229 64.892L140.52 63.5622L139.457 63.119L138.216 62.5871L138.925 64.2714L138.039 64.5374L136.799 64.1828L136.267 63.2963L136.799 60.5481L137.419 59.307L137.773 58.4205L138.836 58.0659L139.545 57.7113L140.608 58.0659L140.874 59.4843L141.14 60.3708L141.849 61.08L142.912 61.346L144.595 60.9027L145.481 59.8389L145.216 58.4205L144.064 57.3567L143.444 56.2929L143.975 54.4313L144.064 52.1263L143.444 49.7328L143.001 47.6052V46.0981L144.064 45.8322L145.481 45.5662L146.19 43.9705L146.456 42.1975L146.899 40.8678L147.253 38.7402L146.102 38.031L144.95 38.9175L144.064 40.6905L142.115 41.8429L140.874 42.0202L139.545 43.084L138.039 42.0202L137.95 40.3359L138.571 38.5629L139.457 36.5239L140.254 34.7509L141.849 32.9779L142.646 31.4708L144.064 30.0524L145.57 28.5454L146.722 28.0135L144.33 26.2405L143.001 24.5561L141.849 20.0349L141.406 17.1095L141.229 15.1592L141.406 12.9429L142.115 10.3721L142.912 8.24445L143.355 7.18065L148.405 10.638L154.962 15.0705L159.48 18.0846L171.618 26.4178L179.504 31.6481L179.327 32.0027L178.086 33.6871L177.377 35.1055L176.403 38.3856L175.605 40.5132L174.099 43.084L172.947 44.5024L172.416 47.0733L171.796 49.5555L170.998 51.4171L170.112 53.0128L168.34 55.4064L167.543 57.1794L166.923 58.9524L166.568 60.7254L167.188 64.3601L168.517 67.4628L170.112 69.5905L174.365 74.4662L180.744 80.849L184.111 84.1291L186.769 86.0794L189.427 88.207L190.047 88.8276L190.224 89.8027L189.959 91.8417L188.895 93.4374L186.503 95.0331L185.706 97.1607L184.82 99.2883L183.668 101.416L184.465 103.366L187.035 103.809L189.338 103.632L191.376 103.012L192.705 101.771L194.566 101.593L196.604 101.948L198.553 101.239L200.679 99.8202L203.603 97.8699L204.932 96.0969L205.198 95.2104L204.489 94.4125L203.514 94.3239L202.628 93.9693L202.097 93.4374L201.92 92.8168V92.019L202.185 91.4871L202.54 90.6006L203.16 90.0687L203.603 89.5368H204.489L205.818 89.6254L207.236 89.8914L208.21 89.6254L209.008 88.8276L209.362 87.8524L210.071 85.4589L210.425 83.154L210.159 80.849L209.539 77.0371L208.653 74.1116L207.501 71.7181L207.147 69.4132L207.058 67.4628L207.944 66.2217L208.83 65.5125L209.805 64.3601L210.514 62.7644L210.957 60.7254V58.0659L211.045 54.6086V52.8355L212.02 53.5448L222.032 60.1935L231.423 66.5763L240.106 72.25L247.549 77.303L258.269 84.3951L261.459 86.5227L262.788 88.0297L263.674 89.98L264.028 91.6644L264.383 95.3877L264.914 97.072L267.927 101.948L273.774 108.419L276.609 111.433L279.445 114.536L283.077 118.703L286.001 122.071L291.937 128.986L294.861 132.355L297.785 135.724L300.709 139.092L306.468 145.741L310.366 150.174L312.404 151.06H312.492Z" fill="#E0E0E0" stroke="#F5FAF9" stroke-width="2" stroke-linecap="round" stroke-linejoin="round"/>
<path d="M556.053 313.29V313.556L549.763 316.127L549.32 317.191L548.7 317.989L549.497 327.563L549.586 327.917L549.763 328.183L550.029 328.804L550.472 329.336L550.826 329.513L551.535 329.956L556.142 331.198L556.408 331.463L556.585 331.729L556.762 331.995V332.527V333.148L556.585 334.389V335.541L556.674 335.896L557.117 337.048L558.268 339.087L556.851 342.722L548.965 358.059L547.991 357.083L547.371 356.286L547.193 356.02L547.105 355.754L547.016 355.488V355.133L547.371 354.069V353.449L547.282 353.183L547.193 352.917L545.421 350.878L543.915 349.548L543.384 349.282L542.941 349.194L542.409 349.371L538.688 351.942L537.536 352.474L536.473 352.651L535.675 352.474L534.701 352.119L533.815 351.587L532.752 350.789L531.954 350.435L531.245 350.346L530.537 350.523L529.916 351.055L529.296 351.676L528.853 352.474L528.41 353.36L527.79 355.222L527.613 356.286V357.349L528.056 358.59L528.41 359.122L528.676 359.654L528.587 360.186L528.233 360.984L527.879 361.339L526.815 361.782L526.55 362.225V362.757L527.17 364.353L527.347 366.746L526.993 368.253L526.284 369.76L526.195 370.204L526.284 370.647L526.55 371.002L527.258 371.711V372.331L526.993 372.775L525.664 374.636L525.221 375.523L524.955 376.409L524.512 377.916L523.183 381.108L523.094 381.551L523.183 381.994L523.449 382.083H523.803L524.778 381.906H525.221L525.664 381.994L526.107 382.171L526.372 382.615L526.55 382.969V383.501L526.284 384.122L525.752 384.654L522.474 387.756L521.854 388.111L510.779 390.416L508.564 389.973L506.349 388.554L505.286 388.909L504.311 388.377L503.336 387.668L501.21 386.87L500.413 385.983L499.084 384.122L498.552 384.033L498.375 383.944L497.4 383.767L492.704 381.64H491.907L491.553 381.817L491.287 382.083L491.021 382.792L490.844 383.235L490.755 383.501L490.844 384.388L490.667 385.717V386.072L490.578 386.427L490.401 386.604L490.312 386.959L488.983 388.909L488.895 389.352L489.072 389.618H489.426L489.781 389.707L490.046 389.884L490.312 390.15L490.401 390.505L490.312 390.859L490.135 391.391L489.338 393.164L489.16 393.607L488.274 397.065L487.92 397.863L487.477 398.129L486.857 398.394H485.351L483.933 398.217L482.427 397.508L480.655 396.533L480.3 396.444L479.946 396.621L479.68 397.065L479.592 397.508L479.414 398.66L478.971 399.015L478.528 399.37L475.427 400.167L472.947 400.522L472.415 400.611L472.149 400.788L471.883 401.054L471.795 401.409L472.149 402.206L473.744 403.979L474.719 404.866L475.162 405.309L475.605 405.93L477.111 411.603L477.199 412.135L477.111 413.11L477.022 413.731L476.845 414.263L475.339 417.72V418.075L475.959 420.114L478.706 425.61L477.731 426.231L472.592 427.383L472.504 425.521L472.415 425.078L471.883 423.305L471.618 422.596L471.352 422.153L470.554 421.089L469.668 420.114L468.871 419.671L467.631 419.227L466.656 418.695L466.213 417.277L466.036 415.859V414.706L465.593 413.199L464.707 411.692L458.505 408.767L458.062 407.969L457.264 407.88L455.049 408.855H454.075L453.366 408.412L453.189 407.88L452.923 407.259L452.834 406.905L450.442 405.575L448.936 404.6L445.215 399.37L444.417 397.685L445.126 396.001L446.012 394.139L447.696 392.012L447.873 391.746L448.227 391.302L448.67 390.416L451.771 388.998L452.746 388.288L453.632 387.402L454.341 386.427L456.821 381.462L457.53 380.842L458.062 380.753L458.416 380.487L458.771 380.221L459.125 380.132L460.631 379.955L460.72 379.778L460.454 379.335L459.657 378.271L458.15 376.764L457.619 375.789L457.53 375.523V375.345L457.796 375.257L458.239 374.813L459.125 372.331L457.796 371.002L457.53 369.672V369.14L457.619 368.431L457.796 367.81L458.239 367.278L459.125 366.746L460.897 366.48H462.049L463.112 366.746L464.087 367.633L465.238 368.431L466.39 368.785L472.415 368.874L473.035 367.721L474.187 363.998L475.073 363.112L476.225 361.782L477.642 357.438L477.731 356.64L478.263 355.754L478.706 355.399L479.149 355.222L479.68 355.31L482.338 355.842L483.047 355.931L483.136 355.133L482.87 354.335L482.781 352.917V351.233L482.87 349.46L483.136 347.775L484.376 343.52L481.895 344.229L466.302 343.165L461.163 341.924L459.391 340.86L457.619 339.442L456.91 337.403L456.467 335.63L455.315 328.715L454.872 327.12L454.252 327.031L452.657 329.425L450.974 330.134L448.759 330.577L441.937 330.843L440.165 331.552L439.19 332.084L437.595 338.112L436.443 339.265L422.533 337.58L420.318 336.782L419.609 335.275L419.521 330.843L419.255 328.538L418.192 326.942L417.217 326.056L416.243 325.79L415.179 326.144L414.205 327.031L413.319 328.361L410.218 334.744L406.585 340.24L400.383 342.367L400.472 341.038L398.611 339.176L397.459 337.137L381.954 327.563L373.98 323.042L367.247 320.382L362.728 319.407L361.488 318.698L354.488 306.375L345.894 296.092L344.565 293.876L342.97 290.064L338.629 289.975L320.377 296.89L298.316 266.483L297.873 265.508V264.621L298.936 263.646L310.011 257.352L310.631 256.731L310.897 256.377L309.834 254.16L303.986 243.345L303.809 242.636V241.838L304.961 227.388L307.796 220.739L320.998 195.297L334.996 168.79L335.351 167.904V167.194L334.553 166.751L320.643 162.939L318.074 160.546L312.492 151.06L316.745 150.262L320.377 149.642L326.934 148.401L332.781 147.337L335.705 146.805L340.401 146.007L345.097 145.209L368.576 141.397L373.272 140.599L381.157 141.397L388.954 142.106L396.839 142.816L404.636 143.525L411.813 144.145L418.901 144.766L426.077 145.475L433.165 146.096L436 146.362L437.772 145.83L443 142.993L447.961 140.245L453.1 137.319L458.062 134.571L459.036 134.217L459.922 133.862L461.606 134.128L462.403 134.926L463.289 135.635L468.871 142.904L474.364 150.174L476.934 152.922L479.503 155.581L484.819 158.95L490.135 162.23L492.173 164.092L496.514 173.134L499.349 178.896L503.159 186.875L506.526 193.701L507.412 193.79L514.854 189.8L522.208 185.722L521.145 203.186L519.993 220.562L519.727 224.285L519.284 225.526L518.044 225.97L517.778 226.945L517.512 240.508L517.335 253.983L517.512 254.781L517.955 255.136H524.157H529.739L535.41 255.224H541.612L541.966 255.136L542.409 255.224H542.763L543.029 255.402L543.915 264.178L544.801 272.866L546.396 281.376L548.079 289.886L550.294 300.081L552.509 310.099L553.661 311.517L554.813 312.936L556.053 313.29Z" fill="#E0E0E0" stroke="#F5FAF9" stroke-width="2" stroke-linecap="round" stroke-linejoin="round"/>
<path d="M548.965 358.059L549.408 358.413L555.876 358.679L558.003 359.3L558.8 359.477L559.686 359.654L560.838 359.566L562.167 359.3L562.521 359.211L562.787 359.477L563.053 359.832L563.407 360.718L563.673 361.339L563.762 362.048L563.673 362.934L563.407 363.909L562.964 364.973L562.876 365.328L562.787 365.771V366.214L562.876 369.406L562.964 370.558L563.673 374.104L563.85 374.37L564.027 374.725L564.382 375.079L565.445 375.523L565.711 375.789L565.888 376.055V376.586L565.711 376.941V377.473L565.888 378.005L567.306 379.689L567.217 381.285L567.04 381.905L566.863 382.083L566.597 382.349L565.622 382.615L565.356 382.792L565.268 383.147L565.179 383.501L565.445 386.515L565.622 386.87L565.799 387.136L566.42 387.313H566.863L567.306 387.224L567.571 387.136L568.546 386.693L568.812 386.604H569.166H569.521L569.875 386.87L570.141 387.313L570.229 388.2L570.052 388.643V389.263L570.141 389.618L571.913 391.568L572.622 391.302H572.887L573.065 391.214L573.685 392.189L577.76 393.341L578.381 393.43L579.178 393.341L579.532 393.253H579.887L580.773 393.785L581.127 393.962L581.57 394.051L582.102 393.873L583.254 393.962L592.202 395.646L593.088 397.065L594.417 403.359L594.24 403.891L593.443 404.068H593.088L591.671 404.423L590.607 404.777L588.924 405.664L588.127 406.284L587.772 406.639L587.684 406.993L587.506 407.437V408.412V409.032L587.595 409.476L587.684 409.83L587.772 410.451V410.894V411.692L587.684 412.047L587.418 412.401L586.975 412.578L586.532 412.667H584.937L584.317 412.844L583.962 413.465L583.785 413.997L583.697 418.607L584.228 419.759L584.937 420.646L587.063 422.507L590.962 425.965L590.519 426.585L589.899 429.156L589.544 431.816L589.456 434.298L588.835 436.514L588.481 438.73L588.127 438.908L587.595 438.73L587.063 438.908L586.975 438.996L574.659 435.893L571.913 435.716V436.071L572.001 436.78V437.046V437.401L571.824 437.755L571.647 438.021L571.381 438.287L571.115 438.376L570.495 438.553L564.825 438.73L564.116 438.642L563.762 438.464L563.407 438.287L563.053 438.021L562.876 437.666L562.787 437.135L562.876 436.071L563.23 434.298L563.053 433.323L561.99 431.372L560.926 431.195L556.496 430.309L552.509 429.688H551.801L550.915 429.954L550.117 430.397L549.674 430.752L549.32 431.106L547.636 433.677L547.193 434.12L543.295 435.716H542.941L542.232 435.539L541.434 435.096L538.333 432.702L537.093 431.816L536.118 431.904L528.676 433.589L528.41 433.677L523.449 436.071L522.385 436.78L521.588 437.046H519.727L516.272 436.159L516.006 435.893L515.74 435.45L515.652 434.741L515.563 434.209V433.766L515.652 432.702V431.727L515.475 431.284L515.297 430.929L514.057 429.954L512.462 428.89L509.804 426.231L509.273 425.521L508.918 424.989L508.83 424.635L508.298 422.419L508.209 422.153L508.032 421.887L507.766 421.621L507.501 421.443L507.146 421.355L506.703 421.266H505.108L504.488 421.355L504.045 421.621L503.957 421.975V422.33V423.305V423.66L503.868 424.014L503.691 424.28L503.514 424.546L502.362 425.344L501.299 425.965L500.678 426.142L478.706 425.61L475.959 420.114L475.339 418.075V417.72L476.845 414.263L477.022 413.731L477.111 413.11L477.199 412.135L477.111 411.603L475.605 405.93L475.162 405.309L474.719 404.866L473.744 403.979L472.149 402.206L471.795 401.408L471.884 401.054L472.149 400.788L472.415 400.611L472.947 400.522L475.427 400.167L478.528 399.37L478.971 399.015L479.414 398.66L479.592 397.508L479.68 397.065L479.946 396.621L480.3 396.444L480.655 396.533L482.427 397.508L483.933 398.217L485.351 398.394H486.857L487.477 398.128L487.92 397.862L488.274 397.065L489.16 393.607L489.338 393.164L490.135 391.391L490.312 390.859L490.401 390.505L490.312 390.15L490.046 389.884L489.781 389.707L489.426 389.618H489.072L488.895 389.352L488.983 388.909L490.312 386.959L490.401 386.604L490.578 386.427L490.667 386.072V385.717L490.844 384.388L490.755 383.501L490.844 383.235L491.021 382.792L491.287 382.083L491.553 381.817L491.907 381.639H492.704L497.4 383.767L498.375 383.944L498.552 384.033L499.084 384.122L500.413 385.983L501.21 386.87L503.336 387.668L504.311 388.377L505.286 388.909L506.349 388.554L508.564 389.973L510.779 390.416L521.854 388.111L522.474 387.756L525.752 384.654L526.284 384.122L526.55 383.501V382.969L526.372 382.615L526.107 382.171L525.664 381.994L525.221 381.905H524.778L523.803 382.083H523.449L523.183 381.994L523.094 381.551L523.183 381.108L524.512 377.916L524.955 376.409L525.221 375.523L525.664 374.636L526.993 372.774L527.258 372.331V371.711L526.55 371.001L526.284 370.647L526.195 370.204L526.284 369.76L526.993 368.253L527.347 366.746L527.17 364.353L526.55 362.757V362.225L526.815 361.782L527.879 361.339L528.233 360.984L528.587 360.186L528.676 359.654L528.41 359.122L528.056 358.59L527.613 357.349V356.286L527.79 355.222L528.41 353.36L528.853 352.474L529.296 351.676L529.916 351.055L530.537 350.523L531.245 350.346L531.954 350.435L532.752 350.789L533.815 351.587L534.701 352.119L535.675 352.474L536.473 352.651L537.536 352.474L538.688 351.942L542.409 349.371L542.941 349.193L543.384 349.282L543.915 349.548L545.421 350.878L547.193 352.917L547.282 353.183L547.371 353.449V354.069L547.016 355.133V355.488L547.105 355.754L547.193 356.02L547.371 356.286L547.991 357.083L548.965 358.059Z" fill="#E0E0E0" stroke="#F5FAF9" stroke-width="2" stroke-linecap="round" stroke-linejoin="round"/>
<path d="M586.975 438.996L586.621 439.351L586.355 439.617L586.266 440.06L586.178 441.035L586.532 443.695L587.95 445.024L594.24 447.241L598.405 447.418L600.442 448.216L600.62 448.482L601.063 449.28L601.328 449.546L601.683 449.634L602.569 449.457L602.923 449.546L603.366 450.344L603.455 451.23L602.835 456.372L603.1 458.056H603.189L602.392 458.677L601.506 459.031L597.784 459.209L597.076 459.386L596.544 459.652L596.19 459.829L595.924 460.095L595.481 460.45L595.215 460.982L595.038 461.425V461.957L595.481 463.552L595.747 465.946L596.987 468.162L597.076 468.428L597.164 468.783V469.226L597.076 469.581L596.987 470.024V470.378L596.898 470.733V471.088L596.987 471.442V471.797L597.164 472.063L597.253 472.772L597.341 473.127V473.481L597.164 474.013L596.898 474.545L596.367 475.343L596.101 475.875L596.012 476.407V477.559L595.924 477.825L595.747 478.091L595.392 478.002L595.126 477.825L594.152 476.85L593.975 476.673L593.709 476.495L593.354 476.318L592.557 476.141L591.76 476.052H591.051L590.342 476.229L589.633 476.584L589.19 476.939L588.836 477.293L588.57 477.559L585.469 483.587L584.937 484.297L584.051 485.272L583.52 485.626L582.722 486.07L580.685 486.601L580.33 487.488L579.71 488.463L578.824 489.438L576.875 491.034L576.609 491.477L576.255 492.364L575.989 493.428L575.457 496.796L575.014 498.392L574.926 498.747L574.217 499.456L568.546 504.066L565.623 505.661L565.002 505.839L563.142 506.193L562.699 506.459L562.256 507.08L561.458 508.409L560.927 509.739L560.661 510.448L560.395 511.246L560.041 512.044L559.686 512.753L553.396 518.604L552.953 519.225L552.687 520.289L552.421 522.859L552.155 523.746L551.358 525.342L549.763 526.317L549.143 524.544L547.46 523.303L545.599 522.328L543.561 521.796H539.663L538.068 521.352L532.841 518.87L530.448 515.856L528.942 514.349L527.259 513.64L523.892 512.665L520.702 510.094L519.285 509.296L515.829 508.764L510.691 506.282L508.919 506.105L507.501 506.725L505.02 508.675L503.691 509.473L500.147 509.739L496.692 508.587L488.186 502.824L483.047 499.367L476.137 494.669L471.264 490.147L464.353 483.942L460.897 481.726L453.366 479.066L446.721 475.254L435.912 466.035L432.988 462.223L433.786 461.425L438.481 456.194L440.874 454.599L447.962 451.673L450.708 450.698L459.303 447.595L459.568 447.418L459.834 447.152L459.923 446.62V446.177L459.746 445.911L459.568 445.645L457.974 443.606L457.619 443.074L457.353 442.454L457.265 442.188L457.176 441.833V441.478L457.265 441.124L457.619 440.592L458.062 439.883L461.961 435.628L462.315 435.362L462.669 435.184L463.29 435.096L463.821 435.184L464.441 434.918L465.062 434.386L470.2 429.245L472.593 427.383L477.731 426.231L478.706 425.61L500.679 426.142L501.299 425.965L502.362 425.344L503.514 424.546L503.691 424.28L503.868 424.014L503.957 423.66V423.305V422.33V421.975L504.046 421.621L504.489 421.355L505.109 421.266H506.704L507.147 421.355L507.501 421.444L507.767 421.621L508.033 421.887L508.21 422.153L508.298 422.419L508.83 424.635L508.919 424.99L509.273 425.521L509.805 426.231L512.463 428.89L514.057 429.954L515.298 430.929L515.475 431.284L515.652 431.727V432.702L515.564 433.766V434.209L515.652 434.741L515.741 435.45L516.007 435.894L516.272 436.159L519.728 437.046H521.588L522.386 436.78L523.449 436.071L528.411 433.677L528.676 433.589L536.119 431.904L537.093 431.816L538.334 432.702L541.435 435.096L542.232 435.539L542.941 435.716H543.295L547.194 434.121L547.637 433.677L549.32 431.106L549.675 430.752L550.118 430.397L550.915 429.954L551.801 429.688H552.51L556.497 430.309L560.927 431.195L561.99 431.372L563.053 433.323L563.23 434.298L562.876 436.071L562.787 437.135L562.876 437.667L563.053 438.021L563.408 438.287L563.762 438.464L564.116 438.642L564.825 438.73L570.496 438.553L571.116 438.376L571.382 438.287L571.647 438.021L571.825 437.755L572.002 437.401V437.046V436.78L571.913 436.071V435.716L574.66 435.894L586.975 438.996Z" fill="#E0E0E0" stroke="#F5FAF9" stroke-width="2" stroke-linecap="round" stroke-linejoin="round"/>
<path d="M549.763 526.317L551.358 525.342L552.155 523.746L552.421 522.86L552.687 520.289L552.953 519.225L553.396 518.604L559.686 512.753L560.041 512.044L560.395 511.246L560.661 510.449L560.927 509.739L561.458 508.41L562.256 507.08L562.699 506.459L563.142 506.193L565.002 505.839L565.622 505.661L568.546 504.066L574.217 499.456L574.925 498.747L575.014 498.392L575.457 496.796L575.989 493.428L576.254 492.364L576.609 491.477L576.875 491.034L578.824 489.438L579.71 488.463L580.33 487.488L580.684 486.602L582.722 486.07L583.52 485.626L584.051 485.272L584.937 484.297L585.469 483.587L588.57 477.559L588.836 477.293L589.19 476.939L589.633 476.584L590.342 476.229L591.051 476.052H591.759L592.557 476.141L593.354 476.318L593.709 476.495L593.974 476.673L594.152 476.85L595.126 477.825L595.392 478.002L595.746 478.091L595.924 477.825L596.012 477.559V476.407L596.101 475.875L596.367 475.343L596.898 474.545L597.164 474.013L597.341 473.481V473.127L597.253 472.772L597.164 472.063L596.987 471.797V471.442L596.898 471.088V470.733L596.987 470.379V470.024L597.075 469.581L597.164 469.226V468.783L597.075 468.428L596.987 468.162L595.746 465.946L595.481 463.552L595.038 461.957V461.425L595.215 460.982L595.481 460.45L595.924 460.095L596.189 459.829L596.544 459.652L597.075 459.386L597.784 459.209L601.505 459.031L602.391 458.677L603.189 458.056L604.075 458.943L610.631 460.095L612.049 460.006L615.947 458.677L616.656 458.322L617.365 458.145H618.162L618.96 458.499L619.403 458.677L620.2 459.475L620.997 459.652L621.883 459.297L622.769 458.677L623.124 458.588H623.567H624.01L624.453 458.677L625.25 459.652L626.934 463.552L628.44 465.769L628.971 467.099L628.883 468.517L628.44 469.669L627.82 470.556L627.022 471.265L626.136 471.708L624.896 471.974H624.01L623.478 472.329L623.301 473.747L623.39 474.456L623.744 474.988L623.921 475.609V476.407L623.655 476.761L622.326 477.737L621.972 478.712L622.061 479.864L622.769 482.346L622.858 483.676L622.681 487.488L622.858 488.906L623.212 489.793L624.453 491.743L624.807 492.718L624.896 494.846L625.073 495.733L625.516 496.708L627.554 498.658L629.503 502.115L630.389 503.091L633.047 504.598L637.123 508.232L638.363 510.183L638.54 512.753L637.743 516.565L636.502 520.2L634.465 523.303L633.844 524.544L633.401 525.608L633.224 526.672L632.781 527.469L631.984 528.09L631.186 528.267L628.794 528.622L627.199 529.154L626.313 530.129L624.098 536.778L622.592 539.792L618.871 545.022L616.036 547.682L613.378 551.05L611.251 554.862L609.745 558.852L609.568 561.6L610.631 566.742L610.808 569.49L610.543 571.795L609.922 574.011L608.948 575.961L608.682 576.848L608.505 575.695L607.885 574.809L606.999 574.277L605.935 574.011L604.075 574.1L603.366 574.011L602.834 573.656L601.683 572.858L601.151 572.681L600.531 572.77L599.556 573.036L599.025 573.124L598.67 573.39L598.404 574.011L597.961 574.631L597.43 574.897L596.544 574.1L595.569 571.44L594.417 570.819L593.354 571.174L592.38 571.883L590.696 573.568L589.722 574.366L588.658 574.897L587.507 575.163L586.266 575.341L584.937 575.607L582.988 576.848L581.836 577.114L580.684 576.67L580.153 575.695L579.71 574.454L579.267 573.302L578.204 572.415L575.9 571.529L574.837 570.819L574.394 569.844L573.508 567.007L572.888 566.476L571.824 566.121L569.787 564.703L568.812 564.171H566.331L561.635 565.234L554.902 565.589L554.37 565.766L553.307 566.653L552.775 566.83H551.358L550.738 566.653L547.371 565.234L546.13 565.057L544.801 565.234L543.827 565.5L542.498 564.525L542.586 563.373L543.384 562.22L544.358 561.245L545.156 559.915L544.979 558.852L544.181 557.965L543.118 557.079L542.409 555.306L542.675 552.912L543.738 548.568L543.915 545.997L543.561 540.856L543.738 538.285L545.51 535.093L548.434 531.37L550.295 527.647L549.763 526.317Z" fill="#E0E0E0" stroke="#F5FAF9" stroke-width="2" stroke-linecap="round" stroke-linejoin="round"/>
<path d="M837.713 360.541L837.624 360.186L837.181 358.59L837.093 357.704L837.27 356.463L837.447 355.222V354.424V353.981L837.359 353.626L836.65 353.006L833.992 352.208L833.372 352.119L833.017 351.853L832.043 350.346L831.334 349.814L830.802 350.257L830.271 350.967L829.385 351.055L826.284 350.435L823.803 349.637L822.385 349.725L821.322 349.903L820.082 349.725L819.639 349.548L819.196 349.282L817.158 346.445L816.715 345.648L816.272 345.204L815.652 344.85L812.994 343.963L812.196 343.875L811.576 343.963L811.31 344.141L810.867 344.052L810.158 343.875L808.741 343.077H808.209L807.943 343.343L807.855 344.495L807.589 344.406L807.057 343.609L805.994 341.481L804.399 339.176L805.906 337.669L805.108 335.985L804.488 335.187L804.399 334.655L804.665 334.3L806.349 332.705L806.969 332.261L807.678 331.286L812.994 329.868L814.677 330.666L816.803 329.69L817.424 329.513H818.575L819.816 329.602L821.233 329.425L827.967 331.109L828.853 331.198L829.739 331.02L832.84 330.932L833.549 330.754L833.903 330.577L834.08 330.488L834.523 330.134L835.764 324.46L836.03 323.308L838.953 322.421L840.903 322.155L841.257 321.801L841.877 320.028L842.143 319.584L843.118 318.786L843.738 319.23L845.244 321.535L846.307 322.244L847.813 322.687L850.56 322.953L850.826 323.13L850.914 323.396V323.751L850.826 324.194V325.79L851.8 326.233L853.041 326.322L854.104 326.765L856.23 330.222L857.825 331.907L859.863 332.793L862.078 333.059L868.723 332.439L870.672 333.059L870.938 335.01L870.761 336.162L871.47 336.073L873.862 334.389L877.672 332.616L878.469 333.148L879.178 334.212L880.241 334.921L883.253 334.744L884.848 335.098L885.114 336.428L883.519 338.556L881.127 339.974L876.254 341.747L871.824 344.495L868.103 345.47L866.331 346.268L865.09 348.13L864.47 352.651L862.964 353.36L861.103 352.474H860.129L859.774 353.626L859.686 354.601L859.42 355.576L858.977 356.374L858.18 357.083L856.142 357.172L852.509 354.69L850.56 354.424L849.054 353.626L847.37 351.676L845.598 350.169L844.092 350.878L843.915 351.942L845.067 353.803L844.978 355.044L844.712 356.197V356.906L845.155 357.527L847.37 359.122L847.902 360.541V362.137L847.282 363.821L846.219 365.239L845.067 365.505L843.649 364.973L840.637 363.2L839.839 362.934L837.536 363.023L836.827 362.757L837.093 362.137L837.713 361.959L838.599 361.871L839.308 361.693L839.574 360.984L839.042 360.541L838.156 360.452L837.713 360.541Z" fill="#E0E0E0" stroke="#F5FAF9" stroke-width="2" stroke-linecap="round" stroke-linejoin="round"/>
<path d="M813.437 398.04L812.639 398.217L811.399 397.774L810.336 397.331L809.272 396.533L808.741 395.558L809.627 394.494H810.867L811.753 394.051L813.614 392.632L814.943 392.189L815.12 392.898L813.968 397.242L813.437 398.04ZM783.224 388.643L783.578 388.732L783.844 388.554L784.376 388.111L784.73 387.934L785.971 387.579L786.679 387.756L787.034 388.377L786.679 389.441L784.287 391.125L783.49 391.923L783.578 393.696L785.882 396.09L785.793 398.217L785.173 399.015L784.464 399.281H782.781L780.3 399.99L779.591 399.901L778.971 399.281L778.883 398.572L778.617 398.04L777.642 397.951L777.022 398.394L776.313 399.104L775.604 399.547L774.984 399.192L774.896 397.508L777.111 394.051L776.845 392.012L776.225 391.568L774.896 391.302L774.187 390.948L773.655 390.061L772.326 387.313L772.06 386.161L772.149 385.097L772.415 383.856L773.301 381.817L774.896 380.93L776.047 381.64L776.933 383.235L777.642 385.097L778.528 386.249L779.946 387.136L782.781 388.377L782.958 388.554L783.224 388.643ZM804.399 339.176L805.994 341.481L807.057 343.609L807.589 344.406L807.855 344.495L807.943 343.343L808.209 343.077H808.741L810.158 343.875L810.867 344.052L811.31 344.14L811.576 343.963L812.196 343.875L812.994 343.963L815.652 344.85L816.272 345.204L816.715 345.648L817.158 346.445L819.196 349.282L819.639 349.548L820.082 349.725L821.322 349.903L822.385 349.725L823.803 349.637L826.284 350.435L829.385 351.055L830.271 350.967L830.802 350.257L831.334 349.814L832.043 350.346L833.017 351.853L833.372 352.119L833.992 352.208L836.65 353.006L837.359 353.626L837.447 353.981V354.424V355.222L837.27 356.463L837.093 357.704L837.181 358.59L837.624 360.186L837.713 360.541L835.409 360.629L834.523 360.807L831.068 362.757L830.625 363.466L830.271 364.707L829.562 366.569L828.233 367.987L823.714 370.204L823.448 371.179L823.803 372.243L824.777 372.863L826.284 373.572L826.992 374.104L827.258 374.636L826.904 375.345L826.195 375.523L825.398 375.434L824.777 375.168L824.423 375.079H824.069L823.448 375.257L821.499 375.079L819.461 374.636L817.512 374.725L815.917 376.321L815.031 378.448L814.411 379.423L813.614 380.221L810.867 381.817L810.158 381.994L809.095 381.551L808.829 380.487V377.739L808.475 376.409L807.766 374.902L806.792 374.104L805.906 374.902L805.551 376.232L805.463 377.384L805.02 378.182L803.779 378.271L801.298 377.828L800.147 377.296L799.083 376.675L798.109 375.7L797.666 374.725L797.223 373.927L794.919 373.218L793.324 371.711L792.261 371.622L790.666 371.799L789.78 371.711L789.072 371.356L788.54 370.736L788.097 370.026L787.565 369.672L786.857 369.849L785.971 371.09L785.528 372.597L784.819 373.75L783.224 373.927L777.199 373.04L774.187 373.572L772.326 375.434L771.263 375.345L766.744 375.789L759.391 378.005L757.176 378.182L755.049 378.094L752.923 376.586L752.037 373.75L751.328 370.558L749.999 368.342L748.847 367.899L747.873 367.987L746.898 368.253L745.746 368.342L744.683 368.076L742.114 366.924L742.822 364.53L742.645 364.264L742.202 363.732L742.114 363.644L741.493 362.668L741.405 362.491L741.316 362.136L741.228 360.718L742.025 359.388L743.531 358.413L747.075 357.615L747.607 357.349L748.138 356.729L749.379 354.601L750.088 353.892L750.796 353.537L751.505 353.36L752.303 353.006L752.923 352.385L754.783 350.169L757.884 347.598L758.682 346.889L759.391 346.268L759.834 346.091L760.72 345.913L760.897 345.648L760.985 345.293L761.163 345.027L761.96 344.495L763.289 343.697L763.821 342.988L764.264 342.367L764.884 341.747L765.681 341.304L766.39 341.215L767.808 341.392L768.516 341.304L770.909 339.087H771.972L772.769 339.442L773.212 339.708L773.567 340.063L775.161 340.24L781.009 339.974L777.731 344.406L777.997 344.761L780.034 344.938L780.389 345.116L781.895 346.711L782.249 346.889L782.781 347.066L783.756 347.243L784.287 347.421L785.35 348.307L787.743 349.637L788.451 349.814L789.603 349.637L792.97 346.445L794.565 343.875L795.628 343.077L800.147 340.594L804.399 339.176Z" fill="#E0E0E0" stroke="#F5FAF9" stroke-width="2" stroke-linecap="round" stroke-linejoin="round"/>
<path d="M836.029 323.308L835.764 324.46L834.523 330.134L834.08 330.488L833.903 330.577L833.549 330.754L832.84 330.932L829.739 331.02L828.853 331.198L827.967 331.109L821.233 329.425L819.816 329.602L818.575 329.513H817.423L816.803 329.691L814.677 330.666L812.993 329.868L807.677 331.286L806.969 332.261L806.348 332.705L804.665 334.3L804.399 334.655L804.488 335.187L805.108 335.985L805.905 337.669L804.399 339.176L800.146 340.595L795.628 343.077L794.565 343.875L792.97 346.445L789.603 349.637L788.451 349.814L787.742 349.637L785.35 348.307L784.287 347.421L783.755 347.243L782.781 347.066L782.249 346.889L781.895 346.711L780.389 345.116L780.034 344.938L777.996 344.761L777.731 344.406L781.009 339.974L775.161 340.24L773.566 340.063L773.212 339.708L772.769 339.442L771.972 339.087H770.908L768.516 341.304L767.807 341.392L766.39 341.215L765.681 341.304L764.884 341.747L764.263 342.368L763.82 342.988L763.289 343.697L761.96 344.495L762.048 343.963L762.491 341.658L760.542 340.506L755.846 339.353L755.049 338.378L754.872 337.137L755.403 336.339L756.378 336.162L758.15 337.758L759.213 338.112L759.302 336.871L758.859 336.251L749.467 325.613L747.872 324.194L747.695 324.017L747.607 323.751L746.543 322.687L746.986 321.091L746.809 316.038L746.632 314.531L745.569 312.758L744.506 311.34L744.24 310.808L744.063 310.365V309.833L744.151 309.478L745.126 307.351L745.303 306.907L745.569 306.021L745.392 305.4L743.974 305.223L743.797 304.957L743.62 304.602L743.531 303.539L743.442 302.741L743.531 302.298L743.62 301.854L746.189 298.486L746.632 297.688L747.252 296.003H747.607L749.29 295.383L755.669 291.748L757.353 291.482L758.327 292.103L759.213 293.255L762.137 298.22L762.58 299.638L762.669 301.056L761.96 305.312L762.048 306.464L762.669 307.439L763.466 307.351L764.529 306.819L765.681 306.73L766.656 307.173L767.542 307.794L768.428 308.68L769.136 309.656L770.022 310.542L771.086 310.631L773.301 310.365L775.781 310.808L776.933 311.34L777.996 312.138L778.882 312.67L780.832 312.936L781.629 313.645L782.958 315.772L783.755 316.393L784.287 315.063L784.198 313.645L783.933 312.404L784.021 311.429L785.084 310.808L786.325 310.985L786.945 311.783L787.565 314.354L788.008 315.329L788.717 316.038L789.426 315.95L789.957 314.62L791.198 313.024L794.742 316.038L795.894 315.063L796.159 312.67L795.716 300.879L796.071 299.993L796.78 300.17L799.26 302.475L801.475 303.45L803.247 303.095L804.665 301.588L806.348 297.865L807.057 295.56L807.323 294.23L807.146 292.989L805.64 291.039L805.108 289.887L806.171 287.316L806.791 286.518L807.943 286.075L809.095 286.252L809.715 287.138L809.981 288.468V289.887L809.006 293.787L809.095 294.585L809.538 294.762L809.892 294.23L810.07 293.521L810.335 293.078L810.867 293.344L811.133 294.408L811.664 294.674L812.019 294.319L812.107 292.812L812.462 292.546L812.816 292.723L813.259 293.078L818.132 300.347L818.93 302.386L819.195 304.691L819.107 307.528L819.373 310.453L820.702 311.074L824.777 310.365L826.018 311.429L826.815 312.581L827.701 313.024L829.207 312.138L830.359 311.074L831.599 310.365L832.84 310.099L834.169 310.897L834.7 312.226L834.966 314.088L835.055 316.038L835.498 319.584V320.914L835.143 322.155L834.435 323.84L836.029 323.308ZM756.112 327.031L755.492 325.347L754.783 324.194L753.543 323.13L752.125 322.51L751.328 322.687L751.859 324.106L752.834 325.081L754.34 327.12L755.226 327.918L756.201 328.183L756.112 327.031Z" fill="#E0E0E0" stroke="#F5FAF9" stroke-width="2" stroke-linecap="round" stroke-linejoin="round"/>
<path d="M633.756 346.711L633.578 349.46L632.958 350.169L630.123 350.701L629.414 350.789L629.148 350.967L628.883 351.144L628.794 351.498L628.705 353.094L628.351 355.665L628.528 356.02L628.794 356.286L629.591 356.108L630.566 355.842H631.009L631.186 356.64L625.073 370.647L624.896 371.622L624.718 372.686L624.984 374.548L625.161 375.079L625.427 375.611L625.693 375.789L627.111 376.055L638.806 376.321L654.222 372.509H654.399L654.488 372.597L654.222 373.129L653.956 373.484L653.779 373.838L653.513 374.282L652.805 376.852L652.627 377.296L652.45 377.916L653.07 379.069V379.157L651.033 379.689L649.969 380.487L651.298 381.906L653.602 383.413L655.374 384.122L655.906 384.033L653.691 386.959L652.893 388.377L652.627 389.086V389.618V390.061L652.716 390.416L652.893 391.037L653.248 391.746L653.602 392.987L653.779 393.607L653.868 393.962V394.583L653.779 396.799L653.602 397.153H653.336L653.248 396.887L652.982 396.621L652.716 396.533L652.45 396.444L652.007 396.71L651.919 396.976L652.096 397.242L652.273 397.508L653.248 398.04L653.513 398.306L653.602 398.572L653.513 398.926L653.425 399.37L653.159 399.99L653.07 401.054L652.982 401.675H652.805L652.273 401.586L651.741 403.093L651.21 413.908L650.944 415.504L650.235 416.834L648.995 418.075L646.78 419.493L646.071 420.468L646.691 421.798L645.628 422.241L642.438 423.128L639.958 423.305L637.388 423.128L633.224 421.621L625.516 421.444L607.884 416.834L605.492 416.745L603.543 417.366L598.759 420.823L594.683 421.444L593.62 422.507L593.974 425.433L593.797 425.699L593.62 425.876L593.354 425.965L593.088 426.053L591.759 425.876L590.962 425.965L587.063 422.507L584.937 420.646L584.228 419.759L583.697 418.607L583.785 413.997L583.962 413.465L584.317 412.845L584.937 412.667H586.532L586.975 412.579L587.418 412.401L587.684 412.047L587.772 411.692V410.894V410.451L587.684 409.83L587.595 409.476L587.506 409.033V408.412V407.437L587.684 406.994L587.772 406.639L588.127 406.284L588.924 405.664L590.607 404.777L591.671 404.423L593.088 404.068H593.443L594.24 403.891L594.417 403.359L593.088 397.065L592.202 395.646L583.254 393.962L582.102 393.873L581.57 394.051L581.127 393.962L580.773 393.785L579.887 393.253H579.532L579.178 393.341L578.381 393.43L577.76 393.341L573.685 392.189L573.065 391.214L572.887 391.302H572.622L571.913 391.568L570.141 389.618L570.052 389.264V388.643L570.229 388.2L570.141 387.313L569.875 386.87L569.521 386.604H569.166H568.812L568.546 386.693L567.571 387.136L567.306 387.225L566.863 387.313H566.42L565.799 387.136L565.622 386.87L565.445 386.515L565.179 383.501L565.268 383.147L565.356 382.792L565.622 382.615L566.597 382.349L566.863 382.083L567.04 381.906L567.217 381.285L567.306 379.689L565.888 378.005L565.711 377.473V376.941L565.888 376.587V376.055L565.711 375.789L565.445 375.523L564.382 375.079L564.027 374.725L563.85 374.37L563.673 374.104L562.964 370.558L562.876 369.406L562.787 366.214V365.771L562.876 365.328L562.964 364.973L563.407 363.91L563.673 362.934L563.762 362.048L563.673 361.339L563.407 360.718L563.053 359.832L562.787 359.477L562.521 359.211L562.167 359.3L560.838 359.566L559.686 359.654L558.8 359.477L558.003 359.3L555.876 358.679L549.408 358.413L548.965 358.059L556.851 342.722L558.268 339.087L557.117 337.048L556.674 335.896L556.585 335.541V334.389L556.762 333.148V332.527V331.995L556.585 331.729L556.408 331.463L556.142 331.198L551.535 329.956L550.826 329.513L550.472 329.336L550.029 328.804L549.763 328.183L549.586 327.917L549.497 327.563L548.7 317.989L549.32 317.191L549.763 316.127L556.053 313.556V313.29L558.977 314.088L565.002 313.733L570.052 313.379L582.988 312.581L589.633 312.226L600.442 311.517L606.998 311.163L608.239 311.517L610.365 312.67L611.517 313.024L612.492 312.847L613.998 311.872L615.504 310.897L616.744 310.01L617.099 311.074L617.365 311.96L617.542 312.138L617.896 312.847L619.048 314.354L620.2 315.861L620.731 317.102L620.909 318.432L621.086 319.673L621.44 320.294L621.795 320.825L622.415 320.294L623.035 320.028L623.655 320.116L624.275 320.825L624.984 319.318L626.047 319.23L626.225 320.648V320.825L626.136 321.446L626.668 321.623L626.756 321.712L625.604 322.598L625.161 322.864L625.604 323.042L625.782 323.396L626.225 324.194V326.144L625.959 327.297L625.693 328.449L625.339 329.513L624.984 330.666L624.187 332.439L623.567 333.325L622.858 334.212L621.972 334.832L620.2 335.719L619.668 336.073L619.58 336.605L619.845 336.871L621.883 337.314L623.478 338.201L628.174 342.899L629.946 344.229L631.629 345.648L633.756 346.711Z" fill="#E0E0E0" stroke="#F5FAF9" stroke-width="2" stroke-linecap="round" stroke-linejoin="round"/>
<path d="M652.982 401.675L653.071 401.054L653.159 399.99L653.425 399.37L653.514 398.926L653.602 398.572L653.514 398.306L653.248 398.04L652.273 397.508L652.096 397.242L651.919 396.976L652.008 396.71L652.451 396.444L652.716 396.533L652.982 396.622L653.248 396.887L653.337 397.153H653.602L653.78 396.799L653.868 394.583V393.962L653.78 393.607L653.602 392.987L653.248 391.746L652.894 391.037L652.716 390.416L652.628 390.061V389.618V389.086L652.894 388.377L653.691 386.959L655.906 384.033L667.956 381.64L670.348 383.324L670.702 384.299L670.791 385.363V386.338L670.348 387.136L669.196 387.313L665.386 386.781L664.412 387.047L662.551 388.643L661.842 388.909L660.69 386.781L659.893 386.161L659.273 387.402L659.361 388.022L660.247 388.732L660.425 389.264L660.336 390.593L660.425 391.214L660.69 391.923L665.209 398.217L665.386 399.724L663.171 400.611L662.019 398.749L661.222 395.912L660.159 393.607L659.096 392.81L658.741 393.341L658.918 394.583L659.45 396.09L660.602 398.483L660.513 399.458L659.893 400.788L659.716 400.877L659.184 400.965L659.007 401.054L658.653 402.118V402.561L658.564 403.182L658.21 403.625L657.501 403.27L656.172 401.054L655.286 400.345L653.514 401.941L652.982 401.675ZM675.309 376.941L673.626 376.055L672.474 375.877L664.146 377.207L663.083 377.65L661.311 378.626L660.07 378.803L657.146 378.271L655.995 378.36L653.071 379.157V379.069L652.451 377.916L652.628 377.296L652.805 376.852L653.514 374.282L653.78 373.838L653.957 373.484L654.223 373.129L654.488 372.597L654.4 372.509H654.223L638.806 376.321L627.111 376.055L625.693 375.789L625.428 375.611L625.162 375.079L624.985 374.548L624.719 372.686L624.896 371.622L625.073 370.647L631.187 356.64L631.009 355.842H630.566L629.592 356.108L628.794 356.286L628.529 356.02L628.351 355.665L628.706 353.094L628.794 351.499L628.883 351.144L629.149 350.967L629.415 350.789L630.123 350.701L632.959 350.169L633.579 349.46L633.756 346.711L637.743 348.839L643.768 352.03L643.945 351.676L644.565 351.055H645.363L645.717 350.612L646.071 349.991L646.514 349.725L647.135 349.814L649.172 350.789L650.501 351.055L651.653 350.346L651.919 349.46L650.944 348.928L652.185 346.889L652.273 346.445L651.83 345.648L651.565 344.85L651.299 343.963L651.387 343.077L650.058 342.811L649.615 342.545L649.172 342.013L648.818 340.683L648.552 337.846L648.286 335.01L648.375 334.478L648.464 333.946L648.818 333.591L649.084 333.325L649.438 332.616L649.527 331.907L649.35 330.4L649.438 329.691L649.615 329.779L650.147 329.956L650.324 330.134L650.944 328.538L652.362 327.563L653.425 327.031L656.083 329.425L656.438 330.045L656.615 330.754L656.703 332.35L656.881 332.882L657.146 333.059L657.589 332.705H657.767L657.944 333.148L658.121 334.3L658.918 333.946L660.07 334.212L661.222 334.655L662.019 335.276L662.462 335.896L662.994 337.049L663.437 337.492L663.791 337.758L665.12 338.467L665.741 338.91L666.006 339.265L666.538 340.417V340.683L666.449 341.481L666.538 341.836L666.892 342.102L667.247 342.19L667.601 342.102L667.956 342.19L668.664 342.899L669.196 343.697L669.373 344.584L668.664 345.47L669.462 346.002L670.171 345.736L670.879 345.293L671.677 345.027L672.208 345.293L671.943 346.002L671.145 347.332L673.36 346.977L674.246 347.066L674.866 348.75L675.841 349.548L676.107 350.169L675.841 350.701L675.044 351.499V352.03L675.398 352.296L675.93 351.942L676.461 351.321L676.993 351.055L677.436 351.321L677.79 351.764V352.208L676.461 352.828L676.018 353.803L675.398 356.197L676.018 356.108L676.55 356.197L677.081 356.374L677.524 356.729L676.55 357.261L676.638 357.793L677.17 358.325L677.524 358.768L677.613 359.3L677.79 359.92L677.879 360.541L677.702 361.073L676.904 362.048L676.638 362.58L676.373 363.2L676.195 363.732L675.132 369.938L675.841 371.799L676.195 372.331L676.284 373.306L675.575 375.966L675.309 376.941Z" fill="#E0E0E0" stroke="#F5FAF9" stroke-width="2" stroke-linecap="round" stroke-linejoin="round"/>
<path d="M747.253 296.003L746.632 297.688L746.189 298.486L743.62 301.854L743.531 302.298L743.443 302.741L743.531 303.539L743.62 304.602L743.797 304.957L743.974 305.223L745.392 305.4L745.569 306.021L745.303 306.907L745.126 307.351L744.152 309.478L744.063 309.833V310.365L744.24 310.808L744.506 311.34L745.569 312.758L746.632 314.531L746.81 316.038L746.987 321.091L746.544 322.687L745.924 321.978L743.62 321.003L741.671 321.535L740.253 328.715L737.418 332.084L733.697 334.389L728.381 336.517L723.508 340.24L714.028 343.254L712.876 343.786L711.813 344.672L709.686 347.42L708.446 348.484L707.117 348.928L705.522 348.396L704.813 347.775L704.282 347.066L703.396 345.47L702.775 344.761L701.535 343.874L700.915 343.343L698.877 340.24L697.725 339.087L696.042 338.91L695.244 338.467L694.624 337.758L693.915 337.226L693.029 337.137L691.346 337.669L690.549 338.112L689.751 338.733L688.511 340.417L687.713 342.19L687.359 344.229L687.27 346.711L687.625 350.346L687.448 351.232L686.65 351.676L683.549 351.942L681.689 353.271V354.69L683.726 358.147H683.815L684.878 361.959L685.41 363.2L686.739 365.594L687.27 366.924L687.625 368.431L687.182 371.711L685.587 371.977L683.549 371.267L682.22 371.445L682.486 373.395L686.207 376.764V378.359L684.258 379.246L681.689 379.157L677.081 377.828L675.309 376.941L675.575 375.966L676.284 373.306L676.195 372.331L675.841 371.799L675.132 369.938L676.195 363.732L676.373 363.2L676.638 362.58L676.904 362.048L677.702 361.073L677.879 360.541L677.79 359.92L677.613 359.3L677.524 358.768L677.17 358.324L676.638 357.793L676.55 357.261L677.524 356.729L677.081 356.374L676.55 356.197L676.018 356.108L675.398 356.197L676.018 353.803L676.461 352.828L677.79 352.208V351.764L677.436 351.321L676.993 351.055L676.461 351.321L675.93 351.942L675.398 352.296L675.044 352.03V351.498L675.841 350.701L676.107 350.169L675.841 349.548L674.866 348.75L674.246 347.066L673.36 346.977L671.145 347.332L671.943 346.002L672.208 345.293L671.677 345.027L670.879 345.293L670.171 345.736L669.462 346.002L668.664 345.47L669.373 344.584L669.196 343.697L668.664 342.899L667.956 342.19L667.601 342.101L667.247 342.19L666.892 342.101L666.538 341.836L666.449 341.481L666.538 340.683V340.417L666.006 339.265L665.741 338.91L665.12 338.467L663.791 337.758L663.437 337.492L662.994 337.048L662.462 335.896L662.019 335.275L661.222 334.655L660.07 334.212L658.918 333.946L658.121 334.3L657.944 333.148L657.767 332.705H657.589L657.146 333.059L656.881 332.882L656.703 332.35L656.615 330.754L656.438 330.045L656.083 329.424L653.425 327.031L655.463 326.144L656.526 324.903L657.501 322.155L658.475 319.407L659.096 318.609L659.893 317.811L661.665 317.013L663.348 316.216L664.677 313.999L665.032 313.556L665.298 313.113L666.361 312.758L668.576 312.492L669.55 312.049L670.436 311.606L671.322 310.985L672.208 310.365L673.094 309.478L673.537 308.68L673.892 305.4L674.335 302.209L674.246 301.056L674.158 300.259L673.98 299.993L673.715 299.815L673.272 299.195L673.094 298.663L673.36 298.131L673.803 297.776L676.195 296.624L677.17 296.358L678.056 296.713L678.588 295.294L679.917 294.053L681.246 293.167L682.663 292.28L683.549 292.014L685.055 292.635L685.764 292.546L687.802 291.216L688.511 291.039L690.106 291.305L691.612 291.571L692.232 291.216L692.143 290.507L691.257 288.911L691.08 288.202L691.435 287.316L691.789 286.429L693.118 285.365L696.042 284.479L698.7 282.351L701.269 280.312L702.067 279.426L702.775 278.628L703.661 277.919L707.117 276.944L710.572 275.968L713.496 275.88L716.331 275.702L718.458 274.816L720.052 272.954L720.761 271.89L721.559 271.27L722.976 270.738L724.394 270.206L728.735 267.015L729.355 266.217L729.976 265.508L731.748 262.405L733.52 259.391L734.228 258.593L735.114 258.15L736.089 257.795L736.886 257.352L737.595 256.643L737.772 256.022L737.95 255.402L739.19 252.565L740.342 251.59L741.405 250.614L746.455 248.487L747.164 248.575L748.139 249.285L748.936 250.171L749.379 251.146L749.733 252.387L750.531 253.185L751.594 253.628L752.834 253.806L753.632 253.451L754.429 253.097L755.492 251.058L756.024 249.728L756.467 248.487L757.619 246.182L758.416 245.384L759.125 244.498L759.657 243.522L760.1 242.281L760.808 241.217H762.049L764.441 241.838L766.39 241.572L767.365 241.129L768.339 240.597L771.795 237.76L772.947 236.696L775.162 234.923L776.845 234.746L778.44 235.455L785.705 240.597L787.477 241.217L786.768 243.877L784.819 245.207L780.566 246.448L773.301 251.855L771.175 252.387L768.605 252.299L766.567 252.831L765.593 255.402L765.504 259.391L764.884 260.543L763.112 261.252L757.973 261.784L756.378 262.759L751.328 267.103L749.113 269.763L747.607 273.043L746.367 274.905L744.772 275.88L743.088 276.766L740.076 279.16L731.748 284.124L730.596 285.897L731.57 288.113L733.431 289.089L740.696 289.886L740.785 289.975L742.645 291.128L743.531 291.925L744.329 292.901L745.569 295.294L746.367 296.003H747.253ZM690.194 303.361L689.663 302.741L690.106 302.12L689.574 301.322L688.865 300.879L689.663 299.549L689.397 298.397L687.536 297.156L685.941 296.978L684.701 296.092L683.018 296.181L680.271 298.929L679.828 301.056L678.499 304.425L678.676 304.514L679.562 304.071L679.651 304.868L680.005 305.666L681.246 307.085L682.132 306.287V306.553L681.866 307.173L682.486 308.326L683.992 308.769L685.676 306.73L688.245 304.336L690.194 303.361Z" fill="#219653" stroke="#F5FAF9" stroke-width="2" stroke-linecap="round" stroke-linejoin="round"/>
<g clip-path="url(#clip1)" filter="url(#filter0_ddd)">
<g clip-path="url(#clip2)">
<rect x="596" y="263" width="164" height="24" rx="4" fill="white"/>
<path d="M604.676 270.912H607.878V280H609.111V270.912H612.312V269.818H604.676V270.912ZM615.264 280.179C616.597 280.179 617.293 279.463 617.531 278.966H617.591V280H618.764V274.969C618.764 272.543 616.915 272.264 615.941 272.264C614.787 272.264 613.475 272.662 612.878 274.054L613.992 274.452C614.25 273.895 614.862 273.298 615.98 273.298C617.059 273.298 617.591 273.87 617.591 274.849V274.889C617.591 275.456 617.014 275.406 615.622 275.585C614.205 275.769 612.659 276.082 612.659 277.832C612.659 279.324 613.813 280.179 615.264 280.179ZM615.443 279.125C614.509 279.125 613.833 278.707 613.833 277.892C613.833 276.997 614.648 276.719 615.563 276.599C616.06 276.54 617.392 276.401 617.591 276.162V277.236C617.591 278.19 616.835 279.125 615.443 279.125ZM620.906 272.364V280H630.193V272.364H629.02V278.906H626.136V272.364H624.963V278.906H622.079V272.364H620.906ZM632.336 280H633.509V276.778H634.563L637.069 280H638.58L635.458 276.043L638.54 272.364H637.029L634.284 275.685H633.509V272.364H632.336V280ZM642.742 280.159C644.294 280.159 645.427 279.384 645.785 278.23L644.651 277.912C644.353 278.707 643.662 279.105 642.742 279.105C641.365 279.105 640.416 278.215 640.361 276.58H645.904V276.082C645.904 273.239 644.214 272.264 642.623 272.264C640.555 272.264 639.183 273.895 639.183 276.241C639.183 278.588 640.535 280.159 642.742 280.159ZM640.361 275.565C640.441 274.377 641.281 273.318 642.623 273.318C643.896 273.318 644.711 274.273 644.711 275.565H640.361ZM648.862 272.364H647.689V280H648.862V276.739H652.521V280H653.695V272.364H652.521V275.645H648.862V272.364ZM654.798 273.457H657.324V280H658.497V273.457H661.003V272.364H654.798V273.457ZM665.42 280.159C667.111 280.159 668.224 279.125 668.423 277.773H667.25C667.031 278.608 666.335 279.105 665.42 279.105C664.028 279.105 663.133 277.952 663.133 276.182C663.133 274.452 664.048 273.318 665.42 273.318C666.454 273.318 667.071 273.955 667.25 274.651H668.423C668.224 273.219 667.011 272.264 665.4 272.264C663.332 272.264 661.96 273.895 661.96 276.222C661.96 278.509 663.273 280.159 665.42 280.159ZM670.138 280H671.312V276.778H672.366L674.871 280H676.383L673.26 276.043L676.343 272.364H674.831L672.087 275.685H671.312V272.364H670.138V280ZM679.905 280.179C681.237 280.179 681.933 279.463 682.172 278.966H682.232V280H683.405V274.969C683.405 272.543 681.556 272.264 680.581 272.264C679.428 272.264 678.115 272.662 677.519 274.054L678.632 274.452C678.891 273.895 679.502 273.298 680.621 273.298C681.7 273.298 682.232 273.87 682.232 274.849V274.889C682.232 275.456 681.655 275.406 680.263 275.585C678.846 275.769 677.3 276.082 677.3 277.832C677.3 279.324 678.453 280.179 679.905 280.179ZM680.084 279.125C679.149 279.125 678.473 278.707 678.473 277.892C678.473 276.997 679.289 276.719 680.203 276.599C680.7 276.54 682.033 276.401 682.232 276.162V277.236C682.232 278.19 681.476 279.125 680.084 279.125ZM690.14 280H691.254V272.364H688.112C686.466 272.364 685.467 273.224 685.467 274.631C685.467 275.68 685.994 276.425 686.914 276.739L685.049 280H686.322L688.092 276.898H690.14V280ZM690.14 275.804H687.973C687.142 275.804 686.64 275.362 686.64 274.631C686.64 273.89 687.197 273.438 688.112 273.438H690.14V275.804ZM700.448 280.159C702.516 280.159 703.908 278.588 703.908 276.222C703.908 273.835 702.516 272.264 700.448 272.264C698.379 272.264 696.987 273.835 696.987 276.222C696.987 278.588 698.379 280.159 700.448 280.159ZM700.448 279.105C698.877 279.105 698.161 277.753 698.161 276.222C698.161 274.69 698.877 273.318 700.448 273.318C702.019 273.318 702.735 274.69 702.735 276.222C702.735 277.753 702.019 279.105 700.448 279.105ZM711.366 269.5C710.994 269.813 710.437 269.813 709.656 269.808C709.403 269.808 709.124 269.808 708.821 269.818C706.494 269.878 705.341 271.648 705.341 275.048V275.864C705.341 278.688 706.713 280.159 708.761 280.159C710.805 280.159 712.162 278.678 712.162 276.281C712.162 273.875 710.785 272.602 709 272.602C707.951 272.602 706.972 273.04 706.455 273.994H706.355C706.514 272.026 707.25 270.972 708.841 270.912C710.253 270.852 711.267 270.892 711.963 270.216L711.366 269.5ZM708.761 279.105C707.369 279.105 706.514 277.991 706.514 276.281C706.539 274.611 707.379 273.656 708.741 273.656C710.138 273.656 710.989 274.611 710.989 276.281C710.989 278.001 710.143 279.105 708.761 279.105ZM713.281 280H713.678C715.369 280 715.856 278.688 715.965 276.182L716.085 273.457H718.888V280H720.062V272.364H714.971L714.832 275.744C714.732 278.31 714.474 278.906 713.559 278.906H713.281V280ZM724.462 280.179C725.794 280.179 726.49 279.463 726.729 278.966H726.788V280H727.962V274.969C727.962 272.543 726.112 272.264 725.138 272.264C723.984 272.264 722.672 272.662 722.075 274.054L723.189 274.452C723.447 273.895 724.059 273.298 725.178 273.298C726.256 273.298 726.788 273.87 726.788 274.849V274.889C726.788 275.456 726.212 275.406 724.82 275.585C723.403 275.769 721.857 276.082 721.857 277.832C721.857 279.324 723.01 280.179 724.462 280.179ZM724.641 279.125C723.706 279.125 723.03 278.707 723.03 277.892C723.03 276.997 723.845 276.719 724.76 276.599C725.257 276.54 726.589 276.401 726.788 276.162V277.236C726.788 278.19 726.033 279.125 724.641 279.125ZM733.205 280.159C734.896 280.159 736.009 279.125 736.208 277.773H735.035C734.816 278.608 734.12 279.105 733.205 279.105C731.813 279.105 730.919 277.952 730.919 276.182C730.919 274.452 731.833 273.318 733.205 273.318C734.24 273.318 734.856 273.955 735.035 274.651H736.208C736.009 273.219 734.796 272.264 733.186 272.264C731.117 272.264 729.745 273.895 729.745 276.222C729.745 278.509 731.058 280.159 733.205 280.159ZM737.322 273.457H739.847V280H741.021V273.457H743.526V272.364H737.322V273.457ZM746.411 275.128V272.364H745.238V280H748.44C750.229 280 751.204 278.906 751.204 277.534C751.204 276.142 750.229 275.128 748.44 275.128H746.411ZM746.411 276.222H748.44C749.369 276.222 750.031 276.788 750.031 277.594C750.031 278.364 749.369 278.906 748.44 278.906H746.411V276.222Z" fill="#333333"/>
<g clip-path="url(#clip3)">
<g clip-path="url(#clip4)">
<path d="M685.517 286.317H678H670.483L678 293.833L685.517 286.317Z" fill="white"/>
</g>
</g>
</g>
</g>
<path d="M690.194 303.361L688.245 304.337L685.676 306.73L683.992 308.769L682.486 308.326L681.866 307.173L682.132 306.553V306.287L681.246 307.085L680.005 305.666L679.651 304.868L679.562 304.071L678.676 304.514L678.499 304.425L679.828 301.056L680.271 298.929L683.018 296.181L684.701 296.092L685.941 296.979L687.536 297.156L689.397 298.397L689.663 299.549L688.865 300.879L689.574 301.322L690.106 302.12L689.663 302.741L690.194 303.361Z" fill="#E0E0E0" stroke="#F5FAF9" stroke-width="2" stroke-linecap="round" stroke-linejoin="round"/>
</g>
<defs>
<filter id="filter0_ddd" x="576" y="247" width="204" height="72.2" filterUnits="userSpaceOnUse" color-interpolation-filters="sRGB">
<feFlood flood-opacity="0" result="BackgroundImageFix"/>
<feColorMatrix in="SourceAlpha" type="matrix" values="0 0 0 0 0 0 0 0 0 0 0 0 0 0 0 0 0 0 127 0"/>
<feOffset/>
<feGaussianBlur stdDeviation="0.5"/>
<feColorMatrix type="matrix" values="0 0 0 0 0 0 0 0 0 0 0 0 0 0 0 0 0 0 0.25 0"/>
<feBlend mode="normal" in2="BackgroundImageFix" result="effect1_dropShadow"/>
<feColorMatrix in="SourceAlpha" type="matrix" values="0 0 0 0 0 0 0 0 0 0 0 0 0 0 0 0 0 0 127 0"/>
<feOffset/>
<feGaussianBlur stdDeviation="1"/>
<feColorMatrix type="matrix" values="0 0 0 0 0 0 0 0 0 0 0 0 0 0 0 0 0 0 0.1 0"/>
<feBlend mode="normal" in2="effect1_dropShadow" result="effect2_dropShadow"/>
<feColorMatrix in="SourceAlpha" type="matrix" values="0 0 0 0 0 0 0 0 0 0 0 0 0 0 0 0 0 0 127 0"/>
<feOffset dy="4"/>
<feGaussianBlur stdDeviation="10"/>
<feColorMatrix type="matrix" values="0 0 0 0 0 0 0 0 0 0 0 0 0 0 0 0 0 0 0.1 0"/>
<feBlend mode="normal" in2="effect2_dropShadow" result="effect3_dropShadow"/>
<feBlend mode="normal" in="SourceGraphic" in2="effect3_dropShadow" result="shape"/>
</filter>
<clipPath id="clip0">
<rect width="886" height="578" fill="white"/>
</clipPath>
<clipPath id="clip1">
<rect width="164" height="32.2" fill="white" transform="translate(596 263)"/>
</clipPath>
<clipPath id="clip2">
<rect width="164" height="32.2" fill="white" transform="translate(596 263)"/>
</clipPath>
<clipPath id="clip3">
<rect width="8.2" height="41" fill="white" transform="matrix(0 -1 -1 0 698.5 295.2)"/>
</clipPath>
<clipPath id="clip4">
<rect width="8.2" height="41" fill="white" transform="matrix(0 -1 -1 0 698.5 295.2)"/>
</clipPath>
</defs>
</svg>
