<svg width="21" height="20" viewBox="0 0 21 20" fill="none" xmlns="http://www.w3.org/2000/svg">
<path d="M3.12061 8.3334V11.6667C3.12061 12.1251 3.49561 12.5001 3.95394 12.5001H6.45394L9.19561 15.2417C9.72061 15.7667 10.6206 15.3917 10.6206 14.6501V5.34174C10.6206 4.60007 9.72061 4.22507 9.19561 4.75007L6.45394 7.50007H3.95394C3.49561 7.50007 3.12061 7.87507 3.12061 8.3334ZM14.3706 10.0001C14.3706 8.52507 13.5206 7.2584 12.2873 6.64174V13.3501C13.5206 12.7417 14.3706 11.4751 14.3706 10.0001ZM12.2873 3.7084V3.87507C12.2873 4.19174 12.4956 4.46674 12.7873 4.5834C14.9373 5.44174 16.4539 7.55007 16.4539 10.0001C16.4539 12.4501 14.9373 14.5584 12.7873 15.4167C12.4873 15.5334 12.2873 15.8084 12.2873 16.1251V16.2917C12.2873 16.8167 12.8123 17.1834 13.2956 17.0001C16.1206 15.9251 18.1206 13.2001 18.1206 10.0001C18.1206 6.80007 16.1206 4.07507 13.2956 3.00007C12.8123 2.8084 12.2873 3.1834 12.2873 3.7084Z" fill="#333333"/>
</svg>
