<svg width="24" height="24" viewBox="0 0 24 24" fill="none" xmlns="http://www.w3.org/2000/svg">
<path d="M12 6C10.8133 6 9.65327 6.35189 8.66658 7.01118C7.67988 7.67047 6.91085 8.60754 6.45672 9.7039C6.0026 10.8003 5.88378 12.0067 6.11529 13.1705C6.3468 14.3344 6.91824 15.4035 7.75736 16.2426C8.59647 17.0818 9.66557 17.6532 10.8295 17.8847C11.9933 18.1162 13.1997 17.9974 14.2961 17.5433C15.3925 17.0892 16.3295 16.3201 16.9888 15.3334C17.6481 14.3467 18 13.1867 18 12C17.9982 10.4092 17.3655 8.88416 16.2407 7.75933C15.1158 6.6345 13.5908 6.00179 12 6ZM12 16.5C11.11 16.5 10.24 16.2361 9.49993 15.7416C8.75991 15.2471 8.18314 14.5443 7.84254 13.7221C7.50195 12.8998 7.41283 11.995 7.58647 11.1221C7.7601 10.2492 8.18868 9.44736 8.81802 8.81802C9.44736 8.18868 10.2492 7.7601 11.1221 7.58647C11.995 7.41283 12.8998 7.50195 13.7221 7.84254C14.5443 8.18314 15.2471 8.75991 15.7416 9.49993C16.2361 10.24 16.5 11.11 16.5 12C16.4988 13.1931 16.0243 14.337 15.1807 15.1807C14.337 16.0243 13.1931 16.4988 12 16.5ZM15.0668 11.6783C14.8798 11.7458 14.6736 11.7363 14.4936 11.652C14.3136 11.5676 14.1744 11.4152 14.1068 11.2282C13.9968 10.9213 13.8202 10.6424 13.5896 10.4119C13.3591 10.1813 13.0802 10.0047 12.7733 9.89475C12.6806 9.86136 12.5954 9.81005 12.5225 9.74373C12.4497 9.67742 12.3906 9.5974 12.3487 9.50826C12.264 9.32822 12.2543 9.12193 12.3218 8.93475C12.3551 8.84207 12.4065 8.75687 12.4728 8.68402C12.5391 8.61118 12.6191 8.5521 12.7082 8.51018C12.8883 8.4255 13.0946 8.41582 13.2817 8.48325C13.7965 8.66793 14.2639 8.96424 14.6506 9.35091C15.0373 9.73758 15.3336 10.205 15.5182 10.7198C15.5853 10.9067 15.5754 11.1127 15.4907 11.2924C15.4061 11.4721 15.2536 11.6108 15.0668 11.6783ZM11.25 3.75V2.25C11.25 2.05109 11.329 1.86032 11.4697 1.71967C11.6103 1.57902 11.8011 1.5 12 1.5C12.1989 1.5 12.3897 1.57902 12.5303 1.71967C12.671 1.86032 12.75 2.05109 12.75 2.25V3.75C12.75 3.94891 12.671 4.13968 12.5303 4.28033C12.3897 4.42098 12.1989 4.5 12 4.5C11.8011 4.5 11.6103 4.42098 11.4697 4.28033C11.329 4.13968 11.25 3.94891 11.25 3.75ZM12.75 20.25V21.75C12.75 21.9489 12.671 22.1397 12.5303 22.2803C12.3897 22.421 12.1989 22.5 12 22.5C11.8011 22.5 11.6103 22.421 11.4697 22.2803C11.329 22.1397 11.25 21.9489 11.25 21.75V20.25C11.25 20.0511 11.329 19.8603 11.4697 19.7197C11.6103 19.579 11.8011 19.5 12 19.5C12.1989 19.5 12.3897 19.579 12.5303 19.7197C12.671 19.8603 12.75 20.0511 12.75 20.25ZM17.3032 6.69675C17.1626 6.5561 17.0837 6.36537 17.0837 6.1665C17.0837 5.96763 17.1626 5.7769 17.3032 5.63625L18.3638 4.575C18.4334 4.50532 18.5162 4.45004 18.6072 4.41233C18.6982 4.37462 18.7958 4.35521 18.8944 4.35521C18.9929 4.35521 19.0905 4.37462 19.1815 4.41233C19.2726 4.45004 19.3553 4.50532 19.425 4.575C19.4947 4.64468 19.55 4.72741 19.5877 4.81845C19.6254 4.9095 19.6448 5.00708 19.6448 5.10562C19.6448 5.20417 19.6254 5.30175 19.5877 5.3928C19.55 5.48384 19.4947 5.56657 19.425 5.63625L18.3638 6.69675C18.2231 6.83735 18.0324 6.91634 17.8335 6.91634C17.6346 6.91634 17.4439 6.83735 17.3032 6.69675ZM6.69675 17.3032C6.83735 17.4439 6.91634 17.6346 6.91634 17.8335C6.91634 18.0324 6.83735 18.2231 6.69675 18.3638L5.63625 19.425C5.56657 19.4947 5.48384 19.55 5.3928 19.5877C5.30175 19.6254 5.20417 19.6448 5.10562 19.6448C5.00708 19.6448 4.9095 19.6254 4.81845 19.5877C4.72741 19.55 4.64468 19.4947 4.575 19.425C4.50532 19.3553 4.45004 19.2726 4.41233 19.1815C4.37462 19.0905 4.35521 18.9929 4.35521 18.8944C4.35521 18.7958 4.37462 18.6982 4.41233 18.6072C4.45004 18.5162 4.50532 18.4334 4.575 18.3638L5.6355 17.3032C5.70515 17.2335 5.78787 17.1782 5.87892 17.1405C5.96997 17.1027 6.06756 17.0833 6.16613 17.0833C6.26469 17.0833 6.36228 17.1027 6.45333 17.1405C6.54438 17.1782 6.6271 17.2335 6.69675 17.3032ZM22.5 12C22.5 12.0985 22.4806 12.196 22.4429 12.287C22.4052 12.378 22.35 12.4607 22.2803 12.5303C22.2107 12.6 22.128 12.6552 22.037 12.6929C21.946 12.7306 21.8485 12.75 21.75 12.75H20.25C20.0511 12.75 19.8603 12.671 19.7197 12.5303C19.579 12.3897 19.5 12.1989 19.5 12C19.5 11.8011 19.579 11.6103 19.7197 11.4697C19.8603 11.329 20.0511 11.25 20.25 11.25H21.75C21.9489 11.25 22.1397 11.329 22.2803 11.4697C22.421 11.6103 22.5 11.8011 22.5 12ZM4.5 12C4.5 12.0985 4.4806 12.196 4.44291 12.287C4.40522 12.378 4.34997 12.4607 4.28033 12.5303C4.21069 12.6 4.12801 12.6552 4.03701 12.6929C3.94602 12.7306 3.84849 12.75 3.75 12.75H2.25C2.05109 12.75 1.86032 12.671 1.71967 12.5303C1.57902 12.3897 1.5 12.1989 1.5 12C1.5 11.8011 1.57902 11.6103 1.71967 11.4697C1.86032 11.329 2.05109 11.25 2.25 11.25H3.75C3.94891 11.25 4.13968 11.329 4.28033 11.4697C4.42098 11.6103 4.5 11.8011 4.5 12ZM19.425 18.3638C19.5657 18.5045 19.6448 18.6954 19.6448 18.8944C19.6448 19.0934 19.5657 19.2843 19.425 19.425C19.2843 19.5657 19.0934 19.6448 18.8944 19.6448C18.6954 19.6448 18.5045 19.5657 18.3638 19.425L17.3032 18.3645C17.2316 18.2953 17.1745 18.2126 17.1352 18.1211C17.0959 18.0296 17.0752 17.9311 17.0743 17.8316C17.0734 17.732 17.0924 17.6332 17.1301 17.541C17.1678 17.4489 17.2235 17.3651 17.294 17.2947C17.3644 17.2243 17.4481 17.1686 17.5403 17.1309C17.6325 17.0932 17.7312 17.0742 17.8308 17.0751C17.9304 17.0759 18.0288 17.0966 18.1203 17.1359C18.2118 17.1752 18.2946 17.2324 18.3638 17.304L19.425 18.3638ZM4.575 5.63625C4.43427 5.49552 4.35521 5.30465 4.35521 5.10562C4.35521 4.9066 4.43427 4.71573 4.575 4.575C4.71573 4.43427 4.9066 4.35521 5.10562 4.35521C5.30465 4.35521 5.49552 4.43427 5.63625 4.575L6.69675 5.63625C6.76838 5.70543 6.82552 5.78819 6.86483 5.8797C6.90413 5.9712 6.92482 6.06961 6.92569 6.1692C6.92655 6.26878 6.90758 6.36754 6.86987 6.45972C6.83216 6.55189 6.77647 6.63563 6.70605 6.70605C6.63563 6.77647 6.55189 6.83216 6.45972 6.86987C6.36754 6.90758 6.26878 6.92655 6.1692 6.92569C6.06961 6.92482 5.9712 6.90413 5.8797 6.86483C5.78819 6.82552 5.70543 6.76838 5.63625 6.69675L4.575 5.63625Z" fill="#333333"/>
</svg>
