<svg width="30" height="22" viewBox="0 0 30 22" fill="none" xmlns="http://www.w3.org/2000/svg">
<path fill-rule="evenodd" clip-rule="evenodd" d="M4.53908 1.22736C2.50591 1.32636 0.8727 2.8909 0.740752 4.88726C0.614337 6.79992 0.489746 9.15338 0.489746 11C0.489746 12.8466 0.614336 15.2001 0.740752 17.1127C0.8727 19.1091 2.50591 20.6736 4.53908 20.7726C7.48324 20.916 11.6913 21.0888 14.8619 21.0888C18.0326 21.0888 22.2406 20.916 25.1848 20.7726C27.218 20.6736 28.8512 19.1091 28.9831 17.1127C29.1095 15.2001 29.2341 12.8466 29.2341 11C29.2341 9.15338 29.1095 6.79992 28.9831 4.88726C28.8512 2.8909 27.218 1.32636 25.1848 1.22736C22.2406 1.08402 18.0326 0.911133 14.8619 0.911133C11.6913 0.911133 7.48324 1.08402 4.53908 1.22736ZM19.9949 10.9995L11.7823 15.0351V6.96399L19.9949 10.9995Z" fill="white"/>
</svg>
